<svg width="57" height="57" fill="none" xmlns="http://www.w3.org/2000/svg"><path d="M46.194 35.88l-.56-1.725-.56 1.724a1.525 1.525 0 01-1.455 1.057h-1.815l1.468 1.067a1.524 1.524 0 01.556 1.708l-.56 1.726 1.467-1.066a1.525 1.525 0 011.797 0L48 41.437l-.56-1.725a1.525 1.525 0 01.554-1.709l1.469-1.067h-1.815a1.526 1.526 0 01-1.454-1.056zm-16.455-.002l-.56-1.723-.56 1.724a1.526 1.526 0 01-1.455 1.057H25.35l1.468 1.067a1.526 1.526 0 01.555 1.71l-.56 1.724 1.467-1.066a1.524 1.524 0 011.798 0l1.467 1.066-.56-1.725a1.527 1.527 0 01.556-1.71l1.467-1.066h-1.814a1.525 1.525 0 01-1.455-1.058z" fill="#F2BA4B"/><path d="M54.328 26.666H20.484a1.782 1.782 0 00-1.78 1.782v20.484a1.782 1.782 0 001.78 1.781h8.727c.365 0 .722.113 1.021.322l6.153 4.307a1.781 1.781 0 002.043 0l6.152-4.307c.3-.21.656-.322 1.022-.322h8.726a1.782 1.782 0 001.781-1.78V28.447a1.782 1.782 0 00-1.78-1.782zM34.682 37.922l-1.947 1.414.744 2.289a1.531 1.531 0 01-2.354 1.71l-1.946-1.416-1.947 1.415a1.53 1.53 0 01-2.353-1.71l.743-2.288-1.946-1.415a1.53 1.53 0 01.899-2.767h2.406l.744-2.287a1.53 1.53 0 012.909 0l.743 2.288h2.406a1.531 1.531 0 01.9 2.767zm16.455 0l-1.947 1.414.744 2.289a1.53 1.53 0 01-2.354 1.71l-1.946-1.416-1.947 1.415a1.53 1.53 0 01-2.353-1.71l.743-2.288-1.947-1.415a1.53 1.53 0 01.9-2.767h2.406l.743-2.287a1.529 1.529 0 012.909 0l.743 2.288h2.407a1.53 1.53 0 01.899 2.767z" fill="#F2BA4B"/><path d="M24.922 15.396H23.79l.117-.464a4.594 4.594 0 00-.651-3.735 4.227 4.227 0 00-3.03-1.816 4.355 4.355 0 00-4.731 3.27l-.765 3.047-1.899 1.088h-2.653a2.253 2.253 0 00-2.386 2.083v7.478a2.252 2.252 0 002.386 2.082h2.653l1.652.946a3.358 3.358 0 001.67.444h8.768a4.698 4.698 0 004.694-4.692v-5.038a4.698 4.698 0 00-4.693-4.693zM12.167 26.648h-1.99c-.369 0-.604-.198-.604-.301v-7.478c0-.104.235-.302.604-.302h1.99v8.081zm15.666-1.521a2.915 2.915 0 01-2.911 2.911h-8.77a1.58 1.58 0 01-.784-.208l-1.418-.812v-8.82l1.933-1.107a.891.891 0 00.481-.588l.859-3.421a2.574 2.574 0 013.798-1.596c.305.183.568.43.769.723a2.816 2.816 0 01.39 2.288l-.396 1.572a.89.89 0 00.864 1.108h2.274a2.914 2.914 0 012.911 2.912v5.038z" fill="#181F1F"/><path d="M33.844 1.336H3.562a2.675 2.675 0 00-2.67 2.672v39.187a2.675 2.675 0 002.671 2.672h30.282a2.675 2.675 0 002.672-2.672V4.008a2.674 2.674 0 00-2.672-2.672zm.89 41.86a.892.892 0 01-.89.89H3.562a.891.891 0 01-.89-.89v-4.454h32.062v4.453zm0-6.235H2.672V4.008a.892.892 0 01.89-.89h30.282a.892.892 0 01.89.89V36.96z" fill="#181F1F"/><path d="M16.477 42.305h4.453a.89.89 0 100-1.782h-4.453a.89.89 0 000 1.782z" fill="#181F1F"/></svg>