<svg width="33" height="32" fill="none" xmlns="http://www.w3.org/2000/svg"><g clip-path="url(#clip0_118_2933)" stroke="#DB2B1F" stroke-width="1.4" stroke-linecap="round" stroke-linejoin="round"><path d="M12.5 25.333a2.667 2.667 0 105.334 0 2.667 2.667 0 00-5.334 0zm-4-3.999l4 2.667m4-1.335l10.667-16m-4 6.668l2.666 1.333M13.29 6.26l4.407 2.805a1.733 1.733 0 01.528 2.4L14.1 17.88a1.733 1.733 0 01-2.39.526L7.304 15.6a1.733 1.733 0 01-.528-2.4L10.9 6.787a1.733 1.733 0 012.39-.527z"/></g><defs><clipPath id="clip0_118_2933"><path fill="#fff" transform="translate(.5)" d="M0 0h32v32H0z"/></clipPath></defs></svg>