<svg width="54" height="54" fill="none" xmlns="http://www.w3.org/2000/svg"><g clip-path="url(#clip0_236_22961)"><path d="M39.561 37.337c.216.165.446.312.686.44v-3.082c-1.163.458-1.398 2.085-.686 2.642zM29.279 40.32v4.204a2.452 2.452 0 001.552-1.887c.178-1.058-.295-1.866-1.552-2.317zm-2.374-2.983c.216.165.446.312.686.44v-3.082c-1.163.458-1.399 2.085-.686 2.642zm15.03 2.983v4.204a2.451 2.451 0 001.552-1.887c.179-1.058-.294-1.866-1.552-2.317z" fill="#F2BA4B"/><path d="M50.625 24.468h-8.182l-7.381-4.92a.845.845 0 00-1.312.702v4.218H19.406A2.533 2.533 0 0016.875 27v23.624a2.534 2.534 0 002.531 2.531h31.219a2.534 2.534 0 002.531-2.53V27a2.534 2.534 0 00-2.531-2.532zm-18.13 18.45a4.105 4.105 0 01-3.216 3.365v.966a.844.844 0 01-1.688 0v-.9a5.036 5.036 0 01-2.74-.96.843.843 0 11.923-1.412 3.451 3.451 0 001.817.684v-5.006a8.106 8.106 0 01-1.728-.99c-1.83-1.433-1.188-4.874 1.355-5.64.127-.039.25-.068.373-.095v-.868a.844.844 0 011.688 0v.8a4.314 4.314 0 012.153.963.843.843 0 01-1.138 1.246 2.613 2.613 0 00-1.015-.484v3.935c.229.087.47.176.734.27a3.605 3.605 0 012.482 4.125zm12.656 0a4.104 4.104 0 01-3.216 3.365v.966a.844.844 0 11-1.688 0v-.9a5.036 5.036 0 01-2.74-.96.844.844 0 11.924-1.412 3.463 3.463 0 001.816.684v-5.006a8.106 8.106 0 01-1.727-.99c-1.83-1.433-1.189-4.874 1.354-5.64.127-.039.25-.068.373-.095v-.868a.844.844 0 011.688 0v.8a4.31 4.31 0 012.153.963.843.843 0 01-1.138 1.246 2.614 2.614 0 00-1.015-.484v3.935c.23.087.47.176.734.27a3.604 3.604 0 012.482 4.125z" fill="#F2BA4B"/><path d="M41.81.933l-4.69 2.343L32.433.933a.845.845 0 00-.754 0l-4.686 2.342L22.311.933a.845.845 0 00-.755 0l-4.684 2.342L12.19.933a.844.844 0 00-1.221.754v9.282H5.906A2.534 2.534 0 003.375 13.5v6.75a2.5 2.5 0 00.156.844h-.156a2.534 2.534 0 00-2.531 2.531v6.75a2.534 2.534 0 002.531 2.531h7.594v9.282a.845.845 0 001.22.754l4.683-2.342 4.684 2.342a.845.845 0 00.755 0l4.681-2.342 4.686 2.342a.845.845 0 00.754 0l4.689-2.343 4.69 2.343a.844.844 0 001.22-.755v-40.5a.843.843 0 00-1.22-.754zM10.125 12.656H13.5v.844a.845.845 0 01-.844.844H10.97a.845.845 0 01-.844-.844v-.844zm-5.063.844a.845.845 0 01.844-.844h2.532v.844a2.534 2.534 0 002.53 2.531h1.688a2.534 2.534 0 002.531-2.531v-.844h2.532a.845.845 0 01.843.844v6.75a.845.845 0 01-.843.844H5.906a.844.844 0 01-.843-.844V13.5zm8.438 9.281v.844a.845.845 0 01-.844.844H10.97a.845.845 0 01-.844-.844v-.844H13.5zM3.375 31.22a.844.844 0 01-.844-.844v-6.75a.845.845 0 01.844-.844h5.063v.844a2.534 2.534 0 002.53 2.531h1.688a2.534 2.534 0 002.531-2.531v-.844h5.063a.845.845 0 01.844.844v6.75a.845.845 0 01-.844.844H3.375zm37.969 9.604L37.498 38.9a.845.845 0 00-.755 0l-4.688 2.343L27.37 38.9a.845.845 0 00-.755 0l-4.682 2.343L17.25 38.9a.845.845 0 00-.755 0l-3.839 1.921v-7.916h7.594a2.534 2.534 0 002.531-2.531v-1.688h8.438a.844.844 0 000-1.687H22.78v-3.375a2.501 2.501 0 00-.155-.844h8.593a.844.844 0 100-1.687H20.094c.1-.27.153-.556.156-.844v-3.375h10.969a.844.844 0 000-1.688H20.25V13.5a2.534 2.534 0 00-2.531-2.531h-5.063V3.053l3.84 1.92a.845.845 0 00.754 0l4.683-2.342 4.682 2.343a.845.845 0 00.755 0l4.685-2.343 4.688 2.343a.845.845 0 00.755 0l3.846-1.922v37.77z" fill="#111417"/><path d="M29.531 8.438H24.47a.844.844 0 000 1.687h5.062a.844.844 0 000-1.688zm5.063 6.75a.844.844 0 000 1.687h2.531a.844.844 0 100-1.688h-2.531zm2.531 5.906h-2.531a.844.844 0 100 1.687h2.531a.843.843 0 100-1.687zm0 5.906h-2.531a.844.844 0 000 1.688h2.531a.844.844 0 100-1.688zm-4.219 7.594H21.094a.844.844 0 100 1.687h11.812a.844.844 0 100-1.687zM7.594 19.406h2.531a.843.843 0 100-1.687H7.594a.843.843 0 100 1.687zm0 8.438H5.062a.843.843 0 100 1.687h2.532a.843.843 0 100-1.687z" fill="#111417"/></g><defs><clipPath id="clip0_236_22961"><path fill="#fff" d="M0 0h54v54H0z"/></clipPath></defs></svg>