<svg width="57" height="57" fill="none" xmlns="http://www.w3.org/2000/svg"><path d="M53.728 37.295L39.181 22.748a2.057 2.057 0 10-2.91 2.91l.5.5-5.504 11.05-5.287 5.287a1.778 1.778 0 00-.41 1.865l-1.772 1.772a1.781 1.781 0 000 2.519l4.209 4.209a1.783 1.783 0 002.519 0l1.65-1.65.727.727 3.65 3.65a1.781 1.781 0 002.52 0l1.47-1.47a3.34 3.34 0 000-4.723l-2.548-2.548 1.455-1.455 10.913-5.642.456.456a2.058 2.058 0 002.91-2.91zm-5.175.645a.89.89 0 01-1.259 0l-8.729-8.73a.89.89 0 011.26-1.259l8.728 8.73a.89.89 0 010 1.259z" fill="#F2BA4B"/><path d="M43.64.89H31.173A2.675 2.675 0 0028.5 3.563v9.797a2.675 2.675 0 002.672 2.672v3.563a.892.892 0 001.52.63l4.192-4.193h6.757a2.675 2.675 0 002.672-2.672V3.563A2.675 2.675 0 0043.64.89zm.891 12.47a.891.891 0 01-.89.89h-7.125a.89.89 0 00-.63.261l-2.933 2.933V15.14a.89.89 0 00-.89-.891h-.891a.891.891 0 01-.89-.89V3.562a.892.892 0 01.89-.891H43.64a.891.891 0 01.89.89v9.797zM28.31 21.04l-.017-.006a7.413 7.413 0 00-2.799-.55H10.131c-.96 0-1.91.188-2.8.55l-.015.006a7.467 7.467 0 00-4.644 6.903V40.97a2.675 2.675 0 002.672 2.672H30.28a2.675 2.675 0 002.672-2.672V27.943a7.468 7.468 0 00-4.643-6.903zm-2.816 1.226c.291.002.582.026.87.073l-6.938 7.543 2.38-7.616h3.688zm-5.553 0l-2.128 6.81-2.13-6.81h4.258zm-9.81 0h3.687l2.38 7.616-6.936-7.543a5.62 5.62 0 01.869-.073zm21.04 18.703a.891.891 0 01-.89.89h-4.453v-4.453a.89.89 0 10-1.781 0v4.453H11.578v-4.453a.89.89 0 10-1.781 0v4.453H5.344a.891.891 0 01-.89-.89V27.943a5.682 5.682 0 012.959-4.983l9.744 10.596a.892.892 0 001.311 0l9.744-10.596a5.682 5.682 0 012.96 4.983V40.97zM17.304 18.067h1.017a6.497 6.497 0 006.49-6.489V4.931a3.918 3.918 0 00-3.914-3.913h-9.192a.89.89 0 00-.89.89c.018 1.165 0 9.614 0 9.67a6.497 6.497 0 006.489 6.489zM12.596 2.799h8.3a2.135 2.135 0 012.133 2.132v1.176h-8.117a2.326 2.326 0 01-2.146-1.446v-.002a2.274 2.274 0 01-.17-.867v-.993zm0 4.708v-.342c.682.469 1.489.72 2.316.723h8.117v3.69a4.713 4.713 0 01-4.708 4.708h-1.017a4.713 4.713 0 01-4.708-4.708V7.507z" fill="#181F1F"/></svg>