<svg width="54" height="54" fill="none" xmlns="http://www.w3.org/2000/svg"><path d="M34.594 34.172h5.062v10.125h-5.062V34.172zm0-3.375h5.062v1.687h-5.062v-1.687zm-8.438 15.187h3.375v1.688h-3.375v-1.688zm0-8.437h3.375v6.75h-3.375v-6.75zm8.438 8.437h5.062v1.688h-5.062v-1.688zm-8.438-11.812h3.375v1.687h-3.375v-1.687z" fill="#F2BA4B"/><path d="M50.625 25.733H34.943l-4.815-4.815a.844.844 0 00-1.44.597v4.218h-5.063a2.535 2.535 0 00-2.531 2.532v21.937a2.534 2.534 0 002.531 2.531h27a2.534 2.534 0 002.531-2.53V28.264a2.534 2.534 0 00-2.531-2.532zM31.219 48.515a.846.846 0 01-.844.843h-5.063a.842.842 0 01-.843-.843V33.327a.844.844 0 01.843-.844h5.063a.846.846 0 01.844.844v15.188zm10.125 0a.844.844 0 01-.844.843h-6.75a.842.842 0 01-.844-.843V29.952a.846.846 0 01.844-.844h6.75a.846.846 0 01.844.844v18.563zm8.437 0a.842.842 0 01-.843.843h-5.063a.842.842 0 01-.844-.843v-13.5a.844.844 0 01.844-.844h5.063a.846.846 0 01.843.844v13.5z" fill="#F2BA4B"/><path d="M44.719 35.86h3.375v1.687h-3.375v-1.688zm0 10.124h3.375v1.688h-3.375v-1.688zm0-6.75h3.375v5.063h-3.375v-5.063z" fill="#F2BA4B"/><path d="M31.685 1.355L27 3.697l-4.685-2.342a.845.845 0 00-.755 0l-4.685 2.342-4.685-2.342a.845.845 0 00-.755 0L6.75 3.697 2.065 1.355a.844.844 0 00-1.221.754v40.5a.844.844 0 001.22.755l4.686-2.342 4.685 2.342a.844.844 0 00.755 0l4.685-2.342 4.685 2.342a.844.844 0 00.755 0L27 41.022l4.685 2.342a.843.843 0 001.221-.755V2.11a.844.844 0 00-1.22-.754zm-.466 39.889l-3.842-1.92a.844.844 0 00-.754 0l-4.686 2.342-4.685-2.343a.844.844 0 00-.754 0l-4.686 2.343-4.685-2.343a.844.844 0 00-.754 0L2.53 41.244V3.474l3.842 1.921a.845.845 0 00.754 0l4.686-2.342 4.685 2.342a.845.845 0 00.754 0l4.686-2.342 4.685 2.342a.845.845 0 00.754 0l3.842-1.92v37.769z" fill="#111417"/><path d="M21.938 8.86H11.813a.844.844 0 100 1.687h10.124a.843.843 0 100-1.688zm-.844 6.75h-13.5a.844.844 0 000 1.687h13.5a.844.844 0 000-1.688zm3.375 0a.844.844 0 000 1.687h1.687a.844.844 0 000-1.688H24.47zm-3.375 5.906h-13.5a.844.844 0 100 1.687h13.5a.844.844 0 000-1.687zm5.062 0H24.47a.844.844 0 000 1.687h1.687a.844.844 0 000-1.687zm-5.062 5.906h-13.5a.844.844 0 000 1.687h13.5a.844.844 0 000-1.687zm5.062 0H24.47a.844.844 0 000 1.687h1.687a.844.844 0 000-1.687zm-6.75 6.75h-5.062a.844.844 0 000 1.687h5.062a.844.844 0 000-1.687z" fill="#111417"/></svg>