<svg width="54" height="54" fill="none" xmlns="http://www.w3.org/2000/svg"><g clip-path="url(#clip0_236_23030)"><path d="M50.625 27.844H20.25a2.534 2.534 0 00-2.531 2.531v20.25a2.534 2.534 0 002.531 2.531h30.375a2.534 2.534 0 002.531-2.531v-20.25a2.534 2.534 0 00-2.531-2.531zm-1.688 18.562H23.974l1.935 1.935a.845.845 0 01-.92 1.378.844.844 0 01-.273-.185l-3.375-3.374a.847.847 0 010-1.195l3.375-3.374a.843.843 0 011.193 1.193l-1.935 1.935h24.963a.843.843 0 110 1.687zm.596-10.371l-3.374 3.374a.843.843 0 01-1.193-1.193l1.935-1.935H21.937a.843.843 0 110-1.687h24.964l-1.935-1.935a.843.843 0 011.193-1.193l3.374 3.374a.847.847 0 010 1.195z" fill="#F2BA4B"/><path d="M41.344.844H2.53A1.69 1.69 0 00.844 2.53v4.22A1.69 1.69 0 002.53 8.438v28.687a2.534 2.534 0 002.531 2.531h33.75a2.534 2.534 0 002.532-2.531V8.437A1.69 1.69 0 0043.03 6.75V2.531A1.69 1.69 0 0041.344.844zM16.886 2.53h10.103v11.95l-1.128-1.401a.846.846 0 00-1.254-.068l-2.67 2.67-2.67-2.67a.843.843 0 00-1.253.068l-1.128 1.401V2.531zM2.53 6.75V2.531h12.656V6.75H2.531zm37.125 30.375a.844.844 0 01-.843.844H5.063a.845.845 0 01-.844-.844V8.437h10.98v8.438a.844.844 0 001.5.529l2.04-2.534 2.602 2.601a.842.842 0 001.193 0l2.602-2.601 2.04 2.534a.845.845 0 001.5-.529V8.437h10.98v28.688zM28.688 6.75V2.531h12.656V6.75H28.688z" fill="#111417"/><path d="M10.969 28.688h7.594a.844.844 0 100-1.688h-7.594a.844.844 0 000 1.688zm0-3.375h7.594a.844.844 0 100-1.688h-7.594a.844.844 0 000 1.688zm0 6.75h7.594a.844.844 0 100-1.688h-7.594a.844.844 0 000 1.688z" fill="#111417"/><path d="M21.938 20.25H7.594a.844.844 0 00-.844.844v13.5a.844.844 0 00.844.843h14.343a.844.844 0 00.844-.843v-13.5a.842.842 0 00-.843-.844zm-.844 13.5H8.437V21.937h12.657V33.75z" fill="#111417"/></g><defs><clipPath id="clip0_236_23030"><path fill="#fff" d="M0 0h54v54H0z"/></clipPath></defs></svg>