<svg width="54" height="54" fill="none" xmlns="http://www.w3.org/2000/svg"><g clip-path="url(#clip0_236_23019)"><path d="M51.714 23.625L39.656 35.682a.845.845 0 000 1.198l12.058 12.058a.843.843 0 001.442-.591V24.249a.844.844 0 00-1.442-.624zm-39.302 13.5a.844.844 0 00-1.443.59v12.91a2.531 2.531 0 002.531 2.53h3.594a.844.844 0 00.591-.244l4.64-4.64a.842.842 0 000-1.199l-9.913-9.947zm12.301 7.594a.845.845 0 001.199 0l23.026-23.026a.843.843 0 00-.591-1.443H13.5a2.531 2.531 0 00-2.531 2.531v7.813c0 .222.089.434.244.591l13.5 13.534zm12.589-5.454a.845.845 0 00-1.198 0L23.625 51.711a.843.843 0 00.59 1.442h24.942a.844.844 0 00.59-1.442L37.303 39.265z" fill="#F2BA4B"/><path d="M8.438 11.813a3.375 3.375 0 110-6.75 3.375 3.375 0 010 6.75zm0-5.063a1.687 1.687 0 100 3.375 1.687 1.687 0 000-3.375zm27 14.344a3.375 3.375 0 110-6.75 3.375 3.375 0 010 6.75zm0-5.063a1.687 1.687 0 100 3.375 1.687 1.687 0 000-3.375zm-27 18.563a3.375 3.375 0 110-6.751 3.375 3.375 0 010 6.75zm0-5.063a1.688 1.688 0 100 3.375 1.688 1.688 0 000-3.375z" fill="#111417"/><path d="M34.948 10.125c-4.455.279-7.594 4.497-7.02 8.936a13.5 13.5 0 003.662 7.39l-21.355-7.34c1.848-1.493 5.012-4.64 5.67-9.037.683-4.522-2.405-8.926-6.978-9.23A7.594 7.594 0 00.844 8.438c0 6.058 5.273 10.31 6.868 11.458.768.557-.253 0 25.549 8.935l-20.023 9.982a12.952 12.952 0 002.717-6.303c.532-4.43-2.582-8.623-7.028-8.902a7.594 7.594 0 00-8.083 7.61c0 7.139 6.851 11.501 7.146 11.687a.844.844 0 00.844 0c28.24-14.116 26.823-13.331 27.447-13.762 1.51-1.054 6.75-5.18 6.75-11.424a7.592 7.592 0 00-8.083-7.594zM2.531 8.438a5.906 5.906 0 1111.813 0c0 5.214-4.455 8.884-5.906 9.939-1.452-1.055-5.907-4.725-5.907-9.94zm5.907 32.72c-1.452-1.054-5.907-4.725-5.907-9.94a5.906 5.906 0 1111.813 0c0 5.215-4.455 8.886-5.906 9.94zm27-13.5c-1.452-1.054-5.907-4.725-5.907-9.94a5.906 5.906 0 0111.813 0c0 5.215-4.455 8.886-5.906 9.94z" fill="#111417"/></g><defs><clipPath id="clip0_236_23019"><path fill="#fff" d="M0 0h54v54H0z"/></clipPath></defs></svg>