<svg width="40" height="40" fill="none" xmlns="http://www.w3.org/2000/svg"><path d="M17.92 28.102v3.383c0 2.867-2.667 5.183-5.95 5.183-3.284 0-5.967-2.316-5.967-5.183v-3.383c0 2.866 2.667 4.9 5.967 4.9 3.283 0 5.95-2.05 5.95-4.9z" stroke="#DB2B1F" stroke-width="1.5" stroke-linecap="round" stroke-linejoin="round"/><path d="M17.917 23.516c0 .834-.234 1.6-.634 2.267-.983 1.616-3 2.633-5.333 2.633s-4.35-1.033-5.333-2.633a4.372 4.372 0 01-.634-2.267c0-1.433.667-2.716 1.734-3.65 1.083-.95 2.566-1.516 4.216-1.516 1.65 0 3.134.583 4.217 1.516 1.1.917 1.767 2.217 1.767 3.65z" stroke="#DB2B1F" stroke-width="1.5" stroke-linecap="round" stroke-linejoin="round"/><path d="M17.919 23.515V28.1c0 2.866-2.667 4.9-5.95 4.9-3.284 0-5.967-2.05-5.967-4.9v-4.584c0-2.866 2.667-5.183 5.967-5.183 1.65 0 3.133.583 4.216 1.517 1.067.933 1.734 2.233 1.734 3.666zm18.748-5.233v3.433c0 .917-.734 1.667-1.667 1.7h-3.267c-1.8 0-3.45-1.316-3.6-3.116-.1-1.05.3-2.034 1-2.717.617-.633 1.467-1 2.4-1H35a1.711 1.711 0 011.667 1.7z" stroke="#DB2B1F" stroke-width="1.5" stroke-linecap="round" stroke-linejoin="round"/><path d="M3.334 17.499v-3.334c0-4.533 2.733-7.7 6.983-8.233a8.84 8.84 0 011.35-.1h15c.434 0 .85.017 1.25.083 4.3.5 7.084 3.684 7.084 8.25v2.417h-3.467c-.933 0-1.783.367-2.4 1-.7.683-1.1 1.667-1 2.717.15 1.8 1.8 3.116 3.6 3.116H35v2.417c0 5-3.334 8.333-8.334 8.333H22.5" stroke="#DB2B1F" stroke-width="1.5" stroke-linecap="round" stroke-linejoin="round"/></svg>