<svg width="33" height="32" fill="none" xmlns="http://www.w3.org/2000/svg"><g clip-path="url(#clip0_118_2951)" stroke="#DB2B1F" stroke-width="1.4" stroke-linecap="round" stroke-linejoin="round"><path d="M9.833 14.667A2.667 2.667 0 0112.5 12h13.333a2.667 2.667 0 012.667 2.667v8a2.667 2.667 0 01-2.667 2.666H12.5a2.667 2.667 0 01-2.667-2.666v-8z"/><path d="M16.5 18.667a2.667 2.667 0 105.334 0 2.667 2.667 0 00-5.334 0zM23.167 12V9.332A2.667 2.667 0 0020.5 6.666H7.167A2.667 2.667 0 004.5 9.333v8a2.667 2.667 0 002.667 2.666h2.666"/></g><defs><clipPath id="clip0_118_2951"><path fill="#fff" transform="translate(.5)" d="M0 0h32v32H0z"/></clipPath></defs></svg>