<svg width="57" height="57" fill="none" xmlns="http://www.w3.org/2000/svg"><g clip-path="url(#clip0_75_3953)"><path d="M45.134 28.607a1.937 1.937 0 10-3.874 0v1.129h3.874v-1.129zm3.012 13.253l2.414-10.342H35.8l2.444 10.341h9.902z" fill="#F2BA4B"/><path d="M56.11 48.094v-27.61a1.782 1.782 0 00-1.782-1.78H32.062a1.781 1.781 0 00-1.78 1.78v27.61h25.827zM35.727 29.736h3.75v-1.129a3.718 3.718 0 117.438 0v1.129h3.747a1.699 1.699 0 011.654 2.086l-2.452 10.506a1.691 1.691 0 01-1.653 1.313H38.179a1.691 1.691 0 01-1.654-1.313l-2.452-10.506a1.698 1.698 0 011.655-2.086zm-5.446 20.139v4.453a1.781 1.781 0 001.782 1.781h22.265a1.782 1.782 0 001.781-1.78v-4.454H30.281z" fill="#F2BA4B"/><path d="M41.86 17.553h-2.146L25.121 1.713a2.759 2.759 0 00-3.93 0L6.598 17.553H4.453a3.563 3.563 0 000 7.125h.799l4.233 12.827a4.844 4.844 0 004.614 3.338h18.115a4.843 4.843 0 004.613-3.336l4.233-12.829h.8a3.562 3.562 0 100-7.125zM22.5 2.92a.911.911 0 011.312 0l13.48 14.633h-5.978a8.899 8.899 0 00-16.315 0H9.02L22.5 2.92zm-6.469 18.196a7.125 7.125 0 117.125 7.125 7.133 7.133 0 01-7.125-7.125zm-13.36 0a1.785 1.785 0 011.782-1.781h9.977a8.929 8.929 0 000 3.562H4.453a1.784 1.784 0 01-1.781-1.781zM35.136 36.95a3.066 3.066 0 01-2.921 2.112H14.099a3.068 3.068 0 01-2.922-2.113l-4.05-12.27H15a8.898 8.898 0 0016.315 0h7.87l-4.05 12.271zm6.724-14.053h-9.976a8.929 8.929 0 000-3.562h9.976a1.781 1.781 0 010 3.562z" fill="#181F1F"/><path d="M19.594 22.006h2.672v2.672a.89.89 0 001.78 0v-2.672h2.673a.89.89 0 100-1.78h-2.672v-2.673a.89.89 0 00-1.781 0v2.672h-2.672a.89.89 0 100 1.781z" fill="#181F1F"/></g><defs><clipPath id="clip0_75_3953"><path fill="#fff" d="M0 0h57v57H0z"/></clipPath></defs></svg>