<svg width="54" height="54" fill="none" xmlns="http://www.w3.org/2000/svg"><g clip-path="url(#clip0_238_23478)"><path d="M50.625 27.844h-10.77a2.519 2.519 0 00-2.264 1.399l-.754 1.51a.839.839 0 01-.755.466H20.25a2.534 2.534 0 00-2.531 2.531v16.875a2.534 2.534 0 002.531 2.531h30.375a2.535 2.535 0 002.531-2.531v-20.25a2.534 2.534 0 00-2.531-2.531zM47.25 49.21H23.625a.843.843 0 110-1.687H47.25a.844.844 0 110 1.687z" fill="#F2BA4B"/><path d="M36.082 28.488a4.199 4.199 0 013.774-2.332h10.769V16.031a2.534 2.534 0 00-2.531-2.531H22.78a2.534 2.534 0 00-2.531 2.531v13.5h15.31l.522-1.043zm-10.77-11.613h20.25a.844.844 0 110 1.688h-20.25a.844.844 0 110-1.688zm0 4.219h20.25a.843.843 0 110 1.687h-20.25a.843.843 0 110-1.687zM33.75 27h-8.438a.844.844 0 110-1.688h8.438a.844.844 0 110 1.688z" fill="#F2BA4B"/><path d="M33.75.844H10.125a2.534 2.534 0 00-2.531 2.531v4.219H3.375a2.534 2.534 0 00-2.531 2.531V40.5a2.534 2.534 0 002.531 2.531H27a2.534 2.534 0 002.531-2.531v-4.219h4.219a2.534 2.534 0 002.531-2.531V3.375A2.534 2.534 0 0033.75.844zM27.844 40.5a.845.845 0 01-.844.844H3.375a.845.845 0 01-.844-.844V10.125a.845.845 0 01.844-.844H20.25v5.099a2.53 2.53 0 002.53 2.531h.017l5.047-.03V40.5zM21.937 9.63l5.565 5.565-4.716.029h-.005a.846.846 0 01-.843-.844V9.63zm12.657 24.12a.845.845 0 01-.844.844h-4.219V15.886a2.514 2.514 0 00-.741-1.79l-5.761-5.76a2.517 2.517 0 00-1.79-.742H9.28V3.375a.845.845 0 01.844-.844H33.75a.844.844 0 01.844.844V33.75z" fill="#111417"/><path d="M5.906 16.031h10.969a.843.843 0 100-1.687H5.906a.843.843 0 100 1.687zm18.563 5.063H5.906a.843.843 0 100 1.687H24.47a.844.844 0 100-1.687zm0 6.75H5.906a.843.843 0 100 1.687H24.47a.844.844 0 100-1.687zm0 6.75H5.906a.843.843 0 100 1.687H24.47a.844.844 0 100-1.687z" fill="#111417"/></g><defs><clipPath id="clip0_238_23478"><path fill="#fff" d="M0 0h54v54H0z"/></clipPath></defs></svg>