<svg width="57" height="57" fill="none" xmlns="http://www.w3.org/2000/svg"><path d="M41.414 41.414a1.336 1.336 0 100-2.672 1.336 1.336 0 000 2.672z" fill="#F2BA4B"/><path d="M54.328 30.727H42.761a1.78 1.78 0 00-1.306.569l-1.44 1.55a3.553 3.553 0 01-5.218 0l-1.44-1.55a1.78 1.78 0 00-1.305-.57H20.484a1.781 1.781 0 00-1.78 1.782v5.344a1.781 1.781 0 001.78 1.78h7.125v14.25a1.78 1.78 0 001.782 1.782h16.03a1.781 1.781 0 001.782-1.781v-14.25h7.125a1.782 1.782 0 001.781-1.781v-5.344a1.781 1.781 0 00-1.78-1.781zM41.414 43.195a3.118 3.118 0 110-6.235 3.118 3.118 0 010 6.235z" fill="#F2BA4B"/><path d="M45.774 21.04L42.468 6.715a2.687 2.687 0 00-2.003-2.003L26.137 1.404a2.662 2.662 0 00-2.49.715l-2.956 2.957A9.784 9.784 0 106.883 18.883l-5.209 5.209a2.67 2.67 0 000 3.779l17.633 17.633a2.67 2.67 0 003.779 0l21.973-21.973a2.656 2.656 0 00.715-2.49zm-40.43-9.487a8.016 8.016 0 118.016 8.015 8.025 8.025 0 01-8.016-8.016zM43.8 22.27L21.827 44.245a.892.892 0 01-1.26 0L2.933 26.61a.89.89 0 010-1.259l5.404-5.404A9.777 9.777 0 0021.756 6.53l3.151-3.15a.884.884 0 01.83-.239l14.327 3.307a.883.883 0 01.667.667l3.307 14.327a.885.885 0 01-.238.83z" fill="#181F1F"/><path d="M29.084 19.233a.89.89 0 00-1.26-1.26l-.743.743a5.766 5.766 0 00-.424-.253c-2.626-1.409-5.858.813-5.546 3.391.11.764.315 1.51.61 2.223l-4.136 4.136a3.969 3.969 0 01-.984-2.115.89.89 0 00-1.744.366 5.702 5.702 0 001.47 3.007l-.778.778a.89.89 0 001.26 1.26l.825-.827a4.597 4.597 0 005.285-.083 4.05 4.05 0 001.304-5.248c-.133-.28-.267-.57-.398-.86l3.287-3.287c.266.398.432.854.486 1.33a.88.88 0 00.926.846.89.89 0 00.853-.926 4.884 4.884 0 00-.988-2.527l.695-.694zm-7.198 9.915a2.869 2.869 0 01-2.946.228l3.543-3.543c.591 1.26.644 2.43-.597 3.315zm.993-7.508c-.135-1.123 1.544-2.315 2.901-1.623l-2.658 2.659a6.142 6.142 0 01-.243-1.036zm10.282-11.402a2.672 2.672 0 103.78 3.778 2.672 2.672 0 00-3.78-3.778zm2.52 2.518a.891.891 0 11-1.26-1.26.891.891 0 011.26 1.26zM10.838 15.61a.89.89 0 001.37.135l5.344-5.344a.89.89 0 10-1.26-1.26l-4.575 4.576-1.178-1.768a.89.89 0 00-1.483.988l1.782 2.672z" fill="#181F1F"/></svg>