<svg width="40" height="40" fill="none" xmlns="http://www.w3.org/2000/svg"><path d="M13.333 3.334v5m13.334-5v5M5.833 15.15h28.333m2.5 16.517A6.54 6.54 0 0135.7 35.1a6.616 6.616 0 01-5.7 3.233 6.509 6.509 0 01-4.384-1.666A5.991 5.991 0 0124.3 35.1a6.534 6.534 0 01-.967-3.433A6.665 6.665 0 0130 25c2 0 3.783.883 5 2.267a6.667 6.667 0 011.666 4.4z" stroke="#DB2B1F" stroke-width="1.5" stroke-miterlimit="10" stroke-linecap="round" stroke-linejoin="round"/><path d="M27.4 31.667l1.65 1.65 3.55-3.284" stroke="#DB2B1F" stroke-width="1.5" stroke-linecap="round" stroke-linejoin="round"/><path d="M35 14.167v13.1a6.64 6.64 0 00-5-2.266 6.665 6.665 0 00-6.667 6.666c0 1.25.35 2.434.967 3.434.35.6.8 1.133 1.317 1.566H13.333C7.5 36.667 5 33.334 5 28.334V14.167c0-5 2.5-8.333 8.333-8.333h13.334C32.5 5.834 35 9.167 35 14.167z" stroke="#DB2B1F" stroke-width="1.5" stroke-miterlimit="10" stroke-linecap="round" stroke-linejoin="round"/><path d="M19.992 22.833h.015m-6.183 0h.015m-.015 5h.015" stroke="#DB2B1F" stroke-width="1.5" stroke-linecap="round" stroke-linejoin="round"/></svg>