<svg width="40" height="40" fill="none" xmlns="http://www.w3.org/2000/svg"><path d="M30.067 22.585c-.7.683-1.1 1.666-1 2.716.15 1.8 1.8 3.117 3.6 3.117h3.167V30.4c0 3.45-2.817 6.267-6.267 6.267h-16.85a5.99 5.99 0 001.317-1.567A6.54 6.54 0 0015 31.667 6.665 6.665 0 008.334 25a6.67 6.67 0 00-4.167 1.467v-7.283c0-3.45 2.817-6.267 6.267-6.267h19.133c3.45 0 6.267 2.817 6.267 6.267v2.4h-3.367a3.32 3.32 0 00-2.4 1z" stroke="#DB2B1F" stroke-width="1.5" stroke-linecap="round" stroke-linejoin="round"/><path d="M4.167 20.684v-7.616a4.746 4.746 0 013.067-4.45l13.233-5c2.067-.784 4.283.75 4.283 2.966v6.334m12.848 10.366v3.433a1.71 1.71 0 01-1.666 1.7h-3.267c-1.8 0-3.45-1.316-3.6-3.116-.1-1.05.3-2.034 1-2.717.617-.633 1.467-1 2.4-1h3.467a1.711 1.711 0 011.666 1.7zM11.667 20h11.667" stroke="#DB2B1F" stroke-width="1.5" stroke-linecap="round" stroke-linejoin="round"/><path d="M15 31.667a6.54 6.54 0 01-.966 3.433c-.35.6-.8 1.133-1.317 1.567a6.508 6.508 0 01-4.383 1.666c-2.434 0-4.55-1.3-5.7-3.233a6.535 6.535 0 01-.967-3.433c0-2.1.967-3.984 2.5-5.2A6.671 6.671 0 018.334 25 6.665 6.665 0 0115 31.667z" stroke="#DB2B1F" stroke-width="1.5" stroke-miterlimit="10" stroke-linecap="round" stroke-linejoin="round"/><path d="M5.736 31.666l1.65 1.65 3.55-3.283" stroke="#DB2B1F" stroke-width="1.5" stroke-linecap="round" stroke-linejoin="round"/></svg>