<svg width="50" height="50" fill="none" xmlns="http://www.w3.org/2000/svg"><g clip-path="url(#clip0_242_25279)" stroke="#DB2B1F" stroke-width="2" stroke-linecap="round" stroke-linejoin="round"><path d="M6.25 8.333A2.083 2.083 0 018.333 6.25h8.334a2.083 2.083 0 012.083 2.083v8.334a2.083 2.083 0 01-2.083 2.083H8.333a2.083 2.083 0 01-2.083-2.083V8.333zm25 25a2.083 2.083 0 012.083-2.083h8.334a2.083 2.083 0 012.083 2.083v8.334a2.083 2.083 0 01-2.083 2.083h-8.334a2.083 2.083 0 01-2.083-2.083v-8.334zm12.5-10.416v-6.25a4.167 4.167 0 00-4.166-4.167h-12.5m0 0l6.25 6.25m-6.25-6.25l6.25-6.25M6.25 27.078v6.25a4.167 4.167 0 004.167 4.167h12.5m0 0l-6.25-6.25m6.25 6.25l-6.25 6.25"/></g><defs><clipPath id="clip0_242_25279"><path fill="#fff" d="M0 0h50v50H0z"/></clipPath></defs></svg>