<svg width="21" height="20" fill="none" xmlns="http://www.w3.org/2000/svg"><path d="M19.917 14.923a3.217 3.217 0 01-.45 1.725c-.167.3-.392.575-.642.8a3.322 3.322 0 01-2.175.884 3.298 3.298 0 01-2.883-1.559 3.244 3.244 0 01-.517-1.708c-.025-1.05.442-2 1.192-2.625a3.358 3.358 0 012.066-.775 3.333 3.333 0 013.409 3.258z" stroke="#fff" stroke-width="1.5" stroke-miterlimit="10" stroke-linecap="round" stroke-linejoin="round"/><path d="M15.283 15.024l.842.8 1.741-1.683M3.392 6.203l7.358 4.258 7.308-4.233M10.75 18.012v-7.559" stroke="#fff" stroke-width="1.5" stroke-linecap="round" stroke-linejoin="round"/><path d="M18.758 7.643v4.717c0 .041 0 .075-.008.116a3.267 3.267 0 00-2.167-.808c-.783 0-1.508.275-2.083.733a3.309 3.309 0 00-1.25 2.6c0 .625.175 1.217.483 1.717.075.133.167.258.267.375l-1.525.842c-.95.533-2.5.533-3.45 0l-4.45-2.467c-1.008-.558-1.833-1.958-1.833-3.108V7.643c0-1.15.825-2.55 1.833-3.108l4.45-2.467c.95-.533 2.5-.533 3.45 0l4.45 2.467c1.008.558 1.833 1.958 1.833 3.108z" stroke="#fff" stroke-width="1.5" stroke-linecap="round" stroke-linejoin="round"/></svg>