<svg width="21" height="20" fill="none" xmlns="http://www.w3.org/2000/svg"><path d="M3.142 6.203l7.358 4.258 7.308-4.233M10.5 18.012v-7.559" stroke="#fff" stroke-width="1.5" stroke-linecap="round" stroke-linejoin="round"/><path d="M8.775 2.068l-4.45 2.475c-1.008.558-1.833 1.958-1.833 3.108v4.709c0 1.15.825 2.55 1.833 3.108l4.45 2.475c.95.525 2.508.525 3.458 0l4.45-2.475c1.009-.558 1.834-1.958 1.834-3.108V7.65c0-1.15-.825-2.55-1.834-3.108l-4.45-2.475c-.958-.533-2.508-.533-3.458 0z" stroke="#fff" stroke-width="1.5" stroke-linecap="round" stroke-linejoin="round"/><path d="M14.667 11.035v-3.05L6.758 3.418" stroke="#fff" stroke-width="1.5" stroke-linecap="round" stroke-linejoin="round"/></svg>