<svg width="20" height="20" fill="none" xmlns="http://www.w3.org/2000/svg"><path d="M5.583 7.715L10 10.273l4.383-2.541M10 14.807v-4.541" stroke="#fff" stroke-width="1.5" stroke-linecap="round" stroke-linejoin="round"/><path d="M8.967 5.24L6.3 6.725c-.6.334-1.1 1.175-1.1 1.867v2.825c0 .692.492 1.533 1.1 1.867l2.667 1.483c.567.317 1.5.317 2.075 0l2.667-1.483c.6-.334 1.1-1.175 1.1-1.867V8.583c0-.692-.492-1.534-1.1-1.867l-2.667-1.483c-.575-.317-1.508-.317-2.075.008zm9.366 7.26a5.829 5.829 0 01-5.833 5.833l.875-1.458M1.667 7.501A5.83 5.83 0 017.5 1.668l-.875 1.458" stroke="#fff" stroke-width="1.5" stroke-linecap="round" stroke-linejoin="round"/></svg>