<svg width="21" height="20" fill="none" xmlns="http://www.w3.org/2000/svg"><path d="M10.25 11.668h.834c.916 0 1.666-.75 1.666-1.667V1.668h-7.5a3.33 3.33 0 00-2.908 1.708" stroke="#fff" stroke-width="1.5" stroke-linecap="round" stroke-linejoin="round"/><path d="M1.917 14.168c0 1.383 1.116 2.5 2.5 2.5h.833c0-.917.75-1.667 1.667-1.667.916 0 1.666.75 1.666 1.667h3.333c0-.917.75-1.667 1.667-1.667s1.667.75 1.667 1.667h.833c1.384 0 2.5-1.117 2.5-2.5v-2.5h-2.5a.836.836 0 01-.833-.833v-2.5c0-.459.375-.834.833-.834h1.075L15.733 5.01a1.68 1.68 0 00-1.45-.842H12.75v5.833c0 .917-.75 1.667-1.667 1.667h-.833" stroke="#fff" stroke-width="1.5" stroke-linecap="round" stroke-linejoin="round"/><path d="M6.917 18.333a1.667 1.667 0 100-3.333 1.667 1.667 0 000 3.333zm6.666 0a1.667 1.667 0 100-3.333 1.667 1.667 0 000 3.333zm5-8.333v1.667h-2.5a.836.836 0 01-.833-.834v-2.5c0-.458.375-.833.833-.833h1.075l1.425 2.5zM1.917 6.668h5m-5 2.5H5.25m-3.333 2.5h1.666" stroke="#fff" stroke-width="1.5" stroke-linecap="round" stroke-linejoin="round"/></svg>