<svg width="20" height="20" fill="none" xmlns="http://www.w3.org/2000/svg"><path d="M12.5 1.668v8.333c0 .917-.75 1.667-1.667 1.667H1.667V6.351a3.249 3.249 0 002.575 1.15 3.203 3.203 0 002.166-.883c.259-.217.475-.492.642-.792a3.25 3.25 0 00.45-1.733 3.32 3.32 0 00-1.133-2.425H12.5z" stroke="#fff" stroke-width="1.5" stroke-linecap="round" stroke-linejoin="round"/><path d="M18.333 11.668v2.5c0 1.383-1.116 2.5-2.5 2.5H15c0-.917-.75-1.667-1.667-1.667s-1.667.75-1.667 1.667H8.333c0-.917-.75-1.667-1.667-1.667-.916 0-1.666.75-1.666 1.667h-.833a2.497 2.497 0 01-2.5-2.5v-2.5h9.166c.917 0 1.667-.75 1.667-1.667V4.168h1.533c.6 0 1.15.325 1.45.842l1.425 2.49h-1.075a.836.836 0 00-.833.834v2.5c0 .458.375.833.833.833h2.5z" stroke="#fff" stroke-width="1.5" stroke-linecap="round" stroke-linejoin="round"/><path d="M6.667 18.333a1.667 1.667 0 100-3.333 1.667 1.667 0 000 3.333zm6.666 0a1.667 1.667 0 100-3.333 1.667 1.667 0 000 3.333zm5-8.333v1.667h-2.5a.836.836 0 01-.833-.834v-2.5c0-.458.375-.833.833-.833h1.075l1.425 2.5z" stroke="#fff" stroke-width="1.5" stroke-linecap="round" stroke-linejoin="round"/><path d="M7.5 4.091a3.246 3.246 0 01-.45 1.733c-.167.3-.383.575-.642.792a3.203 3.203 0 01-2.166.883 3.249 3.249 0 01-2.575-1.15 2.915 2.915 0 01-.309-.408 3.222 3.222 0 01-.525-1.7A3.324 3.324 0 014.092.833c.875-.017 1.675.3 2.275.833A3.32 3.32 0 017.5 4.091z" stroke="#fff" stroke-width="1.5" stroke-miterlimit="10" stroke-linecap="round" stroke-linejoin="round"/><path d="M2.867 4.192l.841.8L5.45 3.309" stroke="#fff" stroke-width="1.5" stroke-linecap="round" stroke-linejoin="round"/></svg>