<svg width="129" height="123" fill="none" xmlns="http://www.w3.org/2000/svg"><path d="M99.917 100.123c-5.753 0-10.417 4.673-10.417 10.438 0 5.765 4.664 10.439 10.417 10.439s10.417-4.674 10.417-10.439-4.664-10.438-10.417-10.438zm0 0h-50c-5.752 0-10.417-4.675-10.417-10.439s4.665-10.438 10.417-10.438M27 29.14h100l-9.738 39.036c-1.622 6.506-7.456 11.07-14.147 11.07h-52.23c-6.691 0-12.524-4.564-14.147-11.07L27 29.14zm0 0s-2.167-2.424-4.292-10.937C20.333 8.68 11.796 2 2 2m62.5 108.561c0 5.765-4.664 10.439-10.417 10.439s-10.416-4.674-10.416-10.439 4.663-10.438 10.416-10.438S64.5 104.796 64.5 110.561z" stroke="#0B3B47" stroke-width="3" stroke-linecap="round" stroke-linejoin="round"/></svg>