<svg width="24" height="23" fill="none" xmlns="http://www.w3.org/2000/svg"><path d="M18.233 18.316a1.838 1.838 0 00-1.833 1.842c0 1.017.82 1.842 1.833 1.842a1.838 1.838 0 001.834-1.842 1.838 1.838 0 00-1.834-1.842zm0 0h-8.8A1.838 1.838 0 017.6 16.474c0-1.018.821-1.842 1.833-1.842M5.4 5.789H23l-1.714 6.89a2.569 2.569 0 01-2.49 1.953H9.604a2.569 2.569 0 01-2.49-1.954L5.4 5.79zm0 0s-.381-.427-.755-1.93A3.76 3.76 0 001 1m11 19.158C12 21.175 11.18 22 10.167 22a1.838 1.838 0 01-1.834-1.842c0-1.018.821-1.842 1.834-1.842 1.012 0 1.833.825 1.833 1.842z" stroke="#fff" stroke-width="1.6" stroke-miterlimit="10" stroke-linecap="round" stroke-linejoin="round"/></svg>