<svg width="17" height="18" fill="none" xmlns="http://www.w3.org/2000/svg"><g clip-path="url(#clip0_45_22948)"><path d="M15.186 8.385c0-1.46-.416-2.889-1.195-4.103a7.163 7.163 0 00-3.183-2.72 6.833 6.833 0 00-4.098-.42 7.01 7.01 0 00-3.632 2.02 7.483 7.483 0 00-1.942 3.78 7.667 7.667 0 00.403 4.267 7.329 7.329 0 002.612 3.315 6.895 6.895 0 003.94 1.245m5.52 0c-.419 0-.82-.173-1.115-.48a1.676 1.676 0 01-.462-1.16c0-.436.166-.853.462-1.161.295-.308.696-.48 1.114-.48m0 3.281c.418 0 .82-.173 1.115-.48.296-.308.462-.726.462-1.16 0-.436-.166-.853-.462-1.161a1.545 1.545 0 00-1.114-.48m0 3.281V17m0-4.513v-1.23m2.388 1.435l-1.024.616m-2.729 1.64l-1.024.616m0-2.872l1.024.616m2.73 1.64l1.024.616M8.093 4.282v4.103l1.576 1.64" stroke="#F59439" stroke-width="1.5" stroke-miterlimit="10" stroke-linecap="round" stroke-linejoin="round"/></g><defs><clipPath id="clip0_45_22948"><path fill="#fff" d="M0 0h17v18H0z"/></clipPath></defs></svg>