<svg width="163" height="29" fill="none" xmlns="http://www.w3.org/2000/svg"><path fill-rule="evenodd" clip-rule="evenodd" d="M30.286 7.306c2.385-.162 4.768-.311 7.165-.382 2.988-.093 5.975.119 8.951.38 1.757 4.936 1.62 10.442 0 15.395a77.645 77.645 0 01-8.14.4c-2.66-.045-5.316-.207-7.97-.398.267-1.363.544-2.726.81-4.09 3.661.191 7.354.482 11.004 0 .092-.546.16-1.096.223-1.648h-7.39v-3.922h7.419a28.044 28.044 0 00-.208-1.64c-3.671-.424-7.367-.224-11.044 0a1739.41 1739.41 0 01-.814-4.09l-.006-.005zm-20.099 0h18.005v15.395h-5.764V11.658h-6.462v11.045h-5.778V7.306zm39.806 0h5.727v5.558h2.13c1.539-1.85 3.07-3.709 4.61-5.56h6.604a2496.6 2496.6 0 01-6.478 7.217c2.3 2.723 4.6 5.449 6.899 8.178h-7.067l-4.627-5.794h-2.07v5.793h-5.727c-.003-5.128-.003-10.258-.001-15.39v-.002z" fill="#1D2172"/><path fill-rule="evenodd" clip-rule="evenodd" d="M91.76 6.998c.983-.192 2.123-.08 2.88.641.758.722.95 1.805.902 2.794-.035 1.015-.481 2.085-1.396 2.61a3.49 3.49 0 01-3.474-.147c-1.096-.802-1.247-2.346-1.034-3.594.16-1.101.997-2.104 2.123-2.298v-.006zm.302.953c-.641.192-.936.885-1.007 1.499-.08.775-.11 1.617.253 2.329.352.668 1.284.822 1.918.514.601-.32.79-1.055.84-1.685.037-.736.026-1.535-.374-2.181-.338-.534-1.062-.656-1.63-.481v.005zm5.558-.424c1.054-.826 2.515-.697 3.734-.372-.065.329-.131.656-.195.985-.77-.16-1.64-.332-2.36.083-.684.424-.83 1.306-.812 2.046 0 .688.148 1.529.83 1.87.802.379 1.714.16 2.547.018.075.313.149.625.226.938-1.156.34-2.458.515-3.598.03-.873-.362-1.338-1.297-1.422-2.198-.145-1.196.06-2.596 1.05-3.4zm-26.197-.402a26.915 26.915 0 015.615.011v4.8h-5.614V7.125zm12.543-.096h4.15v5.357l.658.02v2.533h-1.066v-1.603h-4.48v1.603h-1.066v-2.524c.241-.054.58.074.742-.173.457-.555.641-1.275.762-1.97.171-1.072.205-2.161.3-3.243zm1.176.918c-.177 1.492-.032 3.145-.918 4.444.84-.013 1.683 0 2.523 0V7.955l-1.605-.008zM102.027 8v-.97h5.443v.973h-2.028c0 1.778-.018 3.555-.011 5.334h-1.367V8.002L102.027 8zm7.37-.962c-.73 2.1-1.459 4.203-2.187 6.306h1.367c.156-.481.311-.962.464-1.444h2.348c.149.482.299.963.451 1.444h1.418l-2.127-6.315-1.734.01zm.832.861c.297 1.027.576 2.058.876 3.083h-1.764c.311-1.033.598-2.061.888-3.09v.007zm3.783-.87c1.062.017 2.127-.037 3.189.033.718.048 1.454.526 1.565 1.283a1.516 1.516 0 01-.794 1.694c.9.29 1.222 1.392.856 2.208-.282.712-1.065 1.09-1.801 1.09-1.005.023-2.011 0-3.015 0V7.03zm1.378.95v1.636c.523-.02 1.07.076 1.577-.094.623-.247.547-1.317-.106-1.474-.481-.11-.981-.058-1.469-.068h-.002zm0 2.566v1.835c.534-.015 1.083.06 1.605-.061.752-.215.755-1.46.016-1.698-.528-.143-1.087-.058-1.627-.076h.006zm5.662-.118c.093-1.123.139-2.26.218-3.39h4.056v6.307h-1.366c-.024-1.785 0-3.57-.013-5.357h-1.508c-.113 1.426-.011 2.922-.563 4.27-.321.801-1.139 1.215-1.938 1.386-.101-.32-.202-.625-.3-.938.339-.173.719-.32.963-.631.358-.469.393-1.083.456-1.647h-.005zm5.732-2.278c.234-.676.945-1.07 1.633-1.1.991-.033 1.984 0 2.976-.012v6.307h-1.386v-2.547c-.546.026-1.256-.125-1.616.403-.372.66-.481 1.433-.722 2.144h-1.37c.239-.746.39-1.524.705-2.245.126-.31.42-.482.696-.642-.892-.353-1.284-1.443-.916-2.31v.002zm1.838-.09c-.744.227-.784 1.492-.032 1.733.459.125.945.053 1.417.065V7.98c-.462.012-.934-.046-1.385.071v.008zm4.131-1.03h4.425v.95h-3.039v1.604h2.558v.896h-2.558v1.891h3.17v.962h-4.557V7.03h.001zm5.663 0h1.699c.612 1.443 1.179 2.91 1.781 4.361.611-1.456 1.21-2.917 1.847-4.363h1.636v6.309h-1.338V9.03c-.501 1.257-1.059 2.489-1.604 3.73h-1.131c-.502-1.232-1.075-2.434-1.545-3.679 0 1.42-.018 2.839-.015 4.258h-1.33v-6.31zm-15.77 7.872l.544-.404c.334.345.708.747 1.224.768.568.027 1.014-.377 1.43-.706l.401.358c-.433.6-1.045 1.18-1.832 1.19-.788.01-1.345-.626-1.765-1.206h-.002zm-39.364 2.206c1.054-.776 2.476-.641 3.674-.32-.064.328-.128.657-.19.986-.782-.141-1.679-.345-2.398.106-.718.45-.802 1.396-.771 2.168.01.665.207 1.46.877 1.754.794.337 1.678.133 2.495-.011.074.32.15.629.221.943-1.13.32-2.392.499-3.518.06-.861-.32-1.371-1.207-1.476-2.084-.19-1.259 0-2.768 1.086-3.59v-.012zm12.809-.471c.916-.192 1.954-.12 2.727.449.728.539 1.046 1.464 1.1 2.337.08 1.045-.16 2.2-.962 2.93-.85.76-2.116.836-3.17.529a2.526 2.526 0 01-1.696-1.854c-.237-.983-.21-2.069.228-2.993a2.566 2.566 0 011.776-1.398h-.003zm.32.95c-.582.193-.86.803-.95 1.372-.106.754-.123 1.556.148 2.277.339.962 1.82 1.132 2.407.335.385-.524.444-1.206.444-1.836 0-.63-.075-1.302-.481-1.804-.377-.449-1.044-.515-1.572-.343h.005zm51.671-.64c1.123-.379 2.386-.581 3.538-.196a1.425 1.425 0 011.007 1.379c.013.603-.423 1.094-.919 1.377.46.204.898.536 1.033 1.046.271.88-.274 1.847-1.123 2.17-1.221.489-2.615.32-3.834-.088.094-.299.192-.597.29-.895.858.229 1.8.438 2.668.14.619-.196.847-1.122.337-1.545-.509-.396-1.195-.268-1.792-.293v-.852c.493-.024 1.051.095 1.482-.213.3-.2.498-.592.356-.945-.117-.306-.457-.434-.755-.481-.695-.083-1.389.066-2.054.26-.083-.29-.16-.58-.245-.871l.011.006zm-60.022-.294h4.359v.93h-2.971v1.54c1.004.04 2.15-.191 3.004.48 1.094.902.642 2.988-.784 3.27-1.186.193-2.407.034-3.595.097-.028-2.104 0-4.21-.013-6.314v-.003zm1.388 3.377v1.998c.52-.019 1.06.063 1.572-.065.781-.28.815-1.642-.024-1.867-.507-.114-1.033-.056-1.548-.066zm11.645-3.379c1.155.061 2.347-.149 3.476.16 1.369.423 1.553 2.464.482 3.29-.719.59-1.707.417-2.567.444 0 .802 0 1.604.011 2.415h-1.397V16.65h-.005zm1.388.95v2.012c.407.02.814.005 1.219-.041.858-.209.865-1.694.011-1.915-.404-.09-.821-.048-1.23-.056zm4.2 5.357v-6.295h1.384c0 .837 0 1.674-.008 2.51h2.5v-2.51h1.386v6.296h-1.386v-2.8h-2.503c.018.933.008 1.866.01 2.8h-1.383zm6.643-6.307h1.376c0 .825 0 1.647.013 2.47.98.038 2.097-.18 2.936.463 1.123.844.78 2.934-.63 3.262-1.213.234-2.466.06-3.69.113V16.65h-.005zm1.386 3.38v1.996c.502-.01 1.012.045 1.51-.043.794-.2.89-1.455.176-1.814-.526-.238-1.123-.11-1.686-.14zm4.341-3.38h1.357v6.308h-1.357V16.65zm2.708.023h1.359v4.397c.926-1.46 1.829-2.943 2.737-4.41.443 0 .887 0 1.333.011v6.287h-1.333V18.62c-.919 1.443-1.803 2.904-2.727 4.337h-1.361v-6.284h-.008zm9.589-.023h4.425v.972h-3.049v5.334h-1.376v-6.307.001zm5.341 0c.879.008 1.764-.014 2.639.008.622.016 1.283.236 1.666.754.604.87.398 2.245-.534 2.816-.714.438-1.59.285-2.385.32 0 .803 0 1.605.008 2.418h-1.394V16.65zm1.387.951v2.011c.514-.033 1.107.119 1.553-.21.482-.471.411-1.535-.306-1.741-.408-.1-.833-.052-1.247-.06zm3.661-.949h1.362c.528 1.283 1.014 2.582 1.502 3.88.481-1.292.948-2.586 1.436-3.875h1.352c-.714 1.77-1.43 3.537-2.146 5.305-.172.439-.435.907-.916 1.055-.608.183-1.25.03-1.853-.092.069-.304.139-.61.213-.915.321.035.642.117.963.072.309-.088.349-.47.505-.71l-.371-.071a3261.75 3261.75 0 00-2.04-4.65l-.007.001zm-70.315 1.54h5.615v4.525a24.889 24.889 0 01-5.615.035l.002-4.56h-.002z" fill="#ED1848"/></svg>