<svg width="196" height="29" fill="none" xmlns="http://www.w3.org/2000/svg"><g clip-path="url(#clip0_164_7865)"><path d="M3.375 20.345l13.317 2.495 1.035-1.743-11.837-4.99-2.515 4.238zm6.17-10.399l10.358 7.489 1.035-1.744-8.878-9.983-2.515 4.238zM6.45 15.165l11.837 4.992 1.055-1.781-10.358-7.488-2.534 4.277zM15.445 0l-2.796 4.718 8.879 9.986 1.316-2.214L15.444 0zM0 26.043h14.796l1.315-2.214-13.316-2.494L0 26.043zm23.48-5.83l3.463 5.83h3.936l-7.398-12.48-7.399 12.48h3.936l3.463-5.83z" fill="#FCAF17"/><path d="M54.968 26.024h5.64l1.295-2.232H54.97v2.232zm0-6.198v2.232h7.961l1.325-2.232h-9.286zm119.516 2.647V15.88h-2.496v10.144h2.089l6.005-6.64v6.64h2.495V15.879h-2.204l-5.889 6.594zM69.64 15.88l-5.976 10.144h2.94l3.936-6.697 3.965 6.697H77.6l-5.976-10.145H69.64zm-17.958 7.91l-5.976-10.153h-2.04L37.688 23.79H36.19V29h2.378v-2.977h12.234V29h2.38v-5.209h-1.5zm-11.015 0l3.936-6.706 3.965 6.706h-7.901zm92.579-7.912h-11.615v2.233h10.28l1.335-2.232zm-66.672 0H54.97v2.233h10.28l1.325-2.232zm127.221 0l-5.889 6.594V15.88h-2.495v10.144h2.098l5.996-6.64v6.64H196V15.879h-2.205zm-27.136 3.947h-5.464v-3.947h-2.496v10.145h2.496v-3.966h5.464v3.966h2.495V15.879h-2.495v3.947zm-30.357-3.947l-5.976 10.145h2.949l3.936-6.697 3.965 6.697h3.086l-5.977-10.145h-1.983zm-24.661 3.637h-3.791V15.87h-2.495v10.153h6.266c1.693 0 3.453-.913 3.453-3.306-.01-3.145-2.273-3.202-3.433-3.202zm-.145 4.361h-3.656v-2.26h3.656c.425 0 1.073.113 1.073 1.13 0 .941-.532 1.13-1.073 1.13zm7.311-7.997h-2.466v10.153h2.466V15.88zm-34.92-.246c-4.17 0-6.141 2.487-6.141 5.266 0 2.9 1.923 5.264 6.14 5.264 1.838 0 6.093-.828 6.093-5.264 0-2.901-1.905-5.266-6.093-5.266zm-.03 8.298c-2.408 0-3.423-1.346-3.423-3.004 0-1.819 1.16-3.033 3.424-3.033 2.552 0 3.422 1.214 3.422 3.033 0 2.176-1.672 3.004-3.422 3.004zm37.774 2.092h5.638l1.306-2.232h-6.944v2.232zm0-6.198v2.232h7.959l1.334-2.232h-9.293zm26.141 2.59V15.88h-2.495v10.145h2.099l6.005-6.584v6.584h2.495V15.879h-2.098l-6.006 6.537zm-46.904-2.373c.657-.274 1.218-.716 1.218-1.818 0-2.101-1.809-2.346-3.085-2.346h-6.74v10.154h6.857c3.142 0 3.79-1.686 3.79-3.23.01-1.743-1.006-2.46-2.04-2.76zm-6.141-2.016h3.994c.599 0 .85.302.85.886 0 .602-.396.913-.85.913h-3.994v-1.799zm4.39 5.85h-4.39V21.7h4.39c.706 0 1.219.169 1.219 1.073 0 .716-.31 1.102-1.218 1.102z" fill="#000"/></g><defs><clipPath id="clip0_164_7865"><path fill="#fff" d="M0 0h196v29H0z"/></clipPath></defs></svg>