<svg width="189" height="42" fill="none" xmlns="http://www.w3.org/2000/svg"><g clip-path="url(#clip0_2_75620)"><path d="M16.949 16.828c-1.045 2.245-3.354 3.145-5.697 3.165-3.714.032-7.428.03-11.144-.004-.102-.002-.116-.039-.043-.112L17.493 2.345c.068-.07.102-.055.103.042.081 5.109.085 9.089.012 11.94-.02.768-.24 1.601-.66 2.5z" fill="#0B3B47"/><path d="M23.299 19.382c-2.186-.956-3.333-2.657-3.441-5.104-.1-2.248-.099-6.222.006-11.921 0-.07.024-.08.073-.03l17.446 17.55c.064.064.05.097-.04.098-5.433.066-9.337.072-11.714.016-.66-.015-1.437-.218-2.33-.61z" fill="#9A9486"/><path d="M14.168 22.73c2.545.973 3.572 3.425 3.5 6.001-.103 3.653-.016 7.315-.051 10.972-.002.106-.04.121-.116.046L-.036 22.179a.042.042 0 01-.01-.046.041.041 0 01.04-.026c3.867-.035 7.743-.024 11.628.032.694.009 1.543.206 2.546.59z" fill="#DB2B1F"/><path d="M19.778 28.74c-.115-3.908 2.079-6.193 5.915-6.575.233-.023 1.052-.042 2.456-.058 3.08-.036 6.16-.034 9.245.006.103.001.118.039.045.113L19.93 39.77c-.063.062-.095.049-.095-.04-.036-3.663.05-7.331-.056-10.99z" fill="#F2BA4B"/><path d="M47 29V14h3.34v12.129h4.177V14h3.34v12.129h4.198V14h3.32v15H47zm29.133-7.714c1.462.085 2.638.421 3.529 1.007.905.586 1.357 1.478 1.357 2.678 0 1.329-.536 2.336-1.608 3.022-1.058.671-2.401 1.007-4.03 1.007h-6.848V14h6.681c1.573 0 2.854.3 3.842.9.989.6 1.483 1.564 1.483 2.893 0 2.143-1.469 3.307-4.406 3.493zm-4.176-4.565v3.365h2.902c.766 0 1.33-.15 1.692-.45.376-.315.563-.729.563-1.243 0-1.114-.744-1.672-2.234-1.672h-2.923zm3.132 9.558c1.67 0 2.506-.6 2.506-1.8 0-1.215-.787-1.822-2.36-1.822h-3.278v3.622h3.132zM92.84 29l-.94-3.279h-5.72L85.24 29h-3.383l4.594-15h5.283l4.593 15H92.84zm-1.733-5.936L89.04 15.93l-2.067 7.135h4.134zM98.12 29V14h6.577c1.002 0 1.893.15 2.673.45.793.3 1.454.829 1.983 1.586.543.743.814 1.685.814 2.828 0 1.657-.494 2.857-1.482 3.6-.988.729-2.283 1.093-3.884 1.093h-3.257V29H98.12zm3.424-8.143h2.735c1.643 0 2.464-.664 2.464-1.993 0-1.328-.821-1.993-2.464-1.993h-2.735v3.986zm17.384-1.05c.78 0 1.49.086 2.13.257a5.934 5.934 0 011.796.75 3.5 3.5 0 011.273 1.436c.307.6.46 1.314.46 2.143 0 1.6-.536 2.771-1.608 3.514-1.058.729-2.408 1.093-4.051 1.093h-6.514V14h11.003v2.721h-7.579v3.086h3.09zm-.292 6.472c1.684 0 2.526-.636 2.526-1.908 0-1.257-.842-1.885-2.526-1.885h-2.798v3.793h2.798zM136.375 29l-.94-3.279h-5.721l-.94 3.279h-3.382l4.593-15h5.283l4.594 15h-3.487zm-1.734-5.936l-2.067-7.135-2.067 7.135h4.134zM141.362 29v-3.621h3.57V29h-3.57zm16.181-15h3.257v15h-5.742l-4.009-12.621V29h-3.278V14h5.742l4.03 12.621V14zm6.398 15V14h11.087v2.743h-7.663v3.343h5.972v2.571h-5.972v3.6h7.956V29h-11.38zm12.677-12.129V14H189v2.871h-4.468V29h-3.425V16.871h-4.489z" fill="#0B3B47"/></g><defs><clipPath id="clip0_2_75620"><path fill="#fff" d="M0 0h189v42H0z"/></clipPath></defs></svg>