<svg width="23" height="29" fill="none" xmlns="http://www.w3.org/2000/svg"><path d="M10.157 11.973c-.501 1.077-1.61 1.51-2.733 1.519-1.783.015-3.565.014-5.348-.002-.049 0-.056-.019-.021-.054l8.363-8.413c.033-.033.05-.026.05.02.039 2.452.04 4.362.006 5.73-.01.368-.116.768-.317 1.2z" fill="#0B3B47"/><path d="M13.204 13.199c-1.048-.459-1.599-1.275-1.65-2.45-.05-1.078-.048-2.985.002-5.72 0-.033.012-.038.035-.014l8.372 8.421c.03.031.024.047-.019.047-2.607.032-4.481.035-5.621.008-.317-.007-.69-.105-1.119-.292z" fill="#9A9486"/><path d="M8.822 14.805c1.221.467 1.714 1.644 1.68 2.88-.05 1.753-.008 3.51-.025 5.265 0 .051-.02.058-.055.022l-8.416-8.431a.02.02 0 01.014-.035c1.856-.016 3.716-.011 5.58.016.334.004.74.099 1.222.283z" fill="#DB2B1F"/><path d="M11.514 17.689c-.055-1.875.997-2.972 2.838-3.155.112-.01.505-.02 1.178-.028a180.72 180.72 0 014.437.003c.05 0 .056.019.022.054l-8.403 8.418c-.03.03-.046.024-.046-.019-.017-1.757.024-3.517-.026-5.273z" fill="#F2BA4B"/></svg>