<svg width="149" height="42" fill="none" xmlns="http://www.w3.org/2000/svg"><path d="M13.435 17.48c-.829 1.775-2.661 2.486-4.52 2.502-2.948.025-5.896.024-8.844-.003-.081-.001-.093-.03-.035-.088L13.867 6.034c.054-.055.081-.043.082.033.065 4.038.068 7.184.01 9.438-.016.606-.19 1.264-.524 1.975z" fill="#0B3B47"/><path d="M18.79 19.489c-1.735-.754-2.645-2.098-2.731-4.03-.08-1.774-.079-4.912.005-9.411 0-.055.019-.063.058-.024L29.969 19.88c.05.05.04.076-.032.077-4.312.053-7.411.057-9.297.013-.525-.012-1.142-.172-1.85-.481z" fill="#9A9486"/><path d="M11.232 22.508c2.01.77 2.822 2.708 2.765 4.745-.081 2.887-.012 5.783-.04 8.673-.002.084-.032.096-.092.037L.01 22.073a.033.033 0 01.023-.057 385.68 385.68 0 019.188.025c.548.007 1.218.163 2.01.467z" fill="#DB2B1F"/><path d="M16.003 27.258c-.09-3.086 1.643-4.89 4.676-5.192.184-.018.831-.033 1.941-.046a298.21 298.21 0 017.308.005c.082 0 .094.03.036.09L16.123 35.968c-.05.05-.076.04-.076-.03-.028-2.894.04-5.791-.044-8.68z" fill="#F2BA4B"/><path d="M37 27V15h2.635v9.703h3.294V15h2.635v9.703h3.31V15h2.619v12H37zm22.978-6.171c1.153.068 2.08.337 2.783.805.714.469 1.07 1.183 1.07 2.143 0 1.063-.422 1.869-1.267 2.417-.835.537-1.894.806-3.179.806h-5.401V15h5.27c1.24 0 2.25.24 3.03.72.78.48 1.17 1.251 1.17 2.314 0 1.715-1.16 2.646-3.476 2.795zm-3.294-3.652v2.692h2.29c.603 0 1.048-.12 1.334-.36.296-.252.444-.583.444-.995 0-.891-.587-1.337-1.762-1.337h-2.306zm2.47 7.646c1.318 0 1.977-.48 1.977-1.44 0-.972-.62-1.457-1.861-1.457h-2.586v2.897h2.47zM73.156 27l-.741-2.623h-4.513L67.161 27h-2.668l3.623-12h4.167l3.623 12h-2.75zm-1.367-4.749l-1.63-5.708-1.631 5.708h3.26zM77.32 27V15h5.187c.79 0 1.494.12 2.108.36.626.24 1.148.663 1.565 1.269.428.594.642 1.348.642 2.262 0 1.326-.39 2.286-1.169 2.88-.78.583-1.8.875-3.063.875h-2.57V27h-2.7zm2.7-6.514h2.158c1.296 0 1.943-.532 1.943-1.595 0-1.062-.647-1.594-1.943-1.594h-2.157v3.189zm13.712-.84c.615 0 1.175.068 1.68.205.516.126.988.326 1.416.6a2.79 2.79 0 011.005 1.149c.241.48.362 1.051.362 1.714 0 1.28-.422 2.217-1.268 2.812-.834.583-1.9.874-3.195.874h-5.138V15h8.679v2.177h-5.978v2.469h2.437zm-.23 5.177c1.328 0 1.992-.509 1.992-1.526 0-1.006-.664-1.508-1.993-1.508h-2.206v3.034H93.5zM107.493 27l-.742-2.623h-4.512L101.498 27H98.83l3.623-12h4.167l3.623 12h-2.75zm-1.367-4.749l-1.631-5.708-1.63 5.708h3.261zm5.3 4.749v-2.897h2.816V27h-2.816zm12.763-12h2.569v12h-4.529l-3.162-10.097V27h-2.586V15h4.529l3.179 10.097V15zm5.046 12V15h8.745v2.194h-6.044v2.675h4.71v2.057h-4.71v2.88h6.275V27h-8.976zm9.999-9.703V15H149v2.297h-3.524V27h-2.701v-9.703h-3.541z" fill="#fff"/></svg>