<svg width="102" height="33" fill="none" xmlns="http://www.w3.org/2000/svg"><g clip-path="url(#clip0_73_3722)"><path d="M.593 32.417h100.825V.551H.593v31.866z" fill="#EC1B24"/><path d="M73.5 32.446c-.473-.197-1.794-.86-1.966-2.178l-2.45 2.181-5.71-.003c-.564-.153-1.593-.65-1.915-2.248l-2.36 2.245-4.983.007-2.128-6.75-2.632 6.743h-4.77l.897-2.265c-1.916 1.56-2.511 2.103-2.683 2.271l-4.054-.003c-1.523-.689-1.634-2.284-1.634-2.284-1.977 1.583-2.592 2.112-2.773 2.284l-3.54-.003c-1.302-.596-1.715-2.21-1.715-2.21a163.488 163.488 0 01-3.127 2.21h-6.424l3.812-9.62h-3.398l-3.682 9.62h-4.74l4.347-11.87h-3.106l-4.63 11.87h-4.74l5.446-14.118H.572V14.25h14.493l-.817 2.39h7.847l-.888 2.456h7.917l-3.63 9.764h3.701l2.884-7.024s1.11-2.74 3.702-2.74h9.995l-3.55 9.834h3.7l5.7-14.68h4.507l-3.48 9.694 5.185-4.848h5.406l-6.516 6.252.959 3.652 4.004-.035 3.993-9.94h4.509l-3.621 9.905h5.184l2.582-6.673h-3.036l1.19-3.232h2.885l1.997-4.775h4.659l-1.775 4.635h2.743l-1.11 3.302h-2.964l-2.441 6.673h5.184l2.44-6.393s1.04-3.298 4.075-3.371h9.763l-3.62 9.764h7.099v3.582h-9.47s-2.219-.28-2.592-2.245l-2.3 2.245h-3.247s-2.077-.28-2.37-2.245l-2.37 2.248h-5.577zm15.906-3.445l2.51-6.178H88.73L86.219 29h3.187zm-52.092 0l2.511-6.178h-3.177L34.127 29h3.187z" fill="#fff"/><path d="M66.047 17.878l1.332-3.652h4.518l-1.331 3.652h-4.519zm30.116-5.614h-.726v-.673h.786c.152 0 .414.025.414.332 0 .293-.242.34-.474.34zm.776.836l-.02-.358c-.01-.274-.14-.325-.272-.373.141-.073.313-.182.313-.475 0-.418-.384-.533-.767-.533h-1.069v1.981h.313v-.849h.756c.383 0 .424.192.424.355 0 .073.01.373.05.494h.393v-.045c-.1-.048-.12-.086-.12-.197z" fill="#fff"/><path d="M96.022 14.015a1.7 1.7 0 01-1.2-.488 1.643 1.643 0 01-.505-1.18c0-.447.182-.865.505-1.18a1.7 1.7 0 011.2-.489c.454 0 .887.173 1.2.488.323.316.504.734.504 1.18 0 .923-.766 1.669-1.704 1.669zm1.341-2.976a1.916 1.916 0 00-1.341-.542c-1.04 0-1.886.829-1.886 1.85 0 .494.191.96.554 1.31a1.89 1.89 0 001.332.543 1.93 1.93 0 001.341-.542c.353-.351.545-.817.545-1.311 0-.495-.192-.96-.545-1.308z" fill="#fff"/></g><defs><clipPath id="clip0_73_3722"><path fill="#fff" transform="translate(.5 .5)" d="M0 0h101v32H0z"/></clipPath></defs></svg>