<svg width="68" height="25" fill="none" xmlns="http://www.w3.org/2000/svg"><g clip-path="url(#clip0_73_3710)"><mask id="a" style="mask-type:luminance" maskUnits="userSpaceOnUse" x="0" y="0" width="68" height="25"><path d="M.5.5v24h67V.5H.5z" fill="#fff"/></mask><g mask="url(#a)" fill="#D31937"><path d="M7.347 15.778l3.19-7.604 3.145 7.604H7.347zM7.363.5l1.523 3.68L.5 24.172h3.326l2.38-5.672h8.6l2.347 5.672h6.765L14.128.5H7.364zM33.14 13.587h7.91l1.16-2.766h-9.07V3.35h9.92L44.256.5h-17.45v23.671h16.513l1.195-2.85H33.14v-7.734zm24.276 0h4.175v8.01a6.73 6.73 0 01-1.677.206c-5.628 0-7.274-4.936-7.274-9.303 0-4.19 1.412-9.15 6.853-9.15h5.798L66.487.5h-7.675c-7.451 0-12.71 4.873-12.71 12 0 7.039 5.05 12 12.884 12 3.902 0 6.432-.704 8.514-1.391V10.82h-8.923l-1.16 2.766z"/></g></g><defs><clipPath id="clip0_73_3710"><path fill="#fff" transform="translate(.5 .5)" d="M0 0h67v24H0z"/></clipPath></defs></svg>