<svg width="68" height="25" fill="none" xmlns="http://www.w3.org/2000/svg"><g clip-path="url(#clip0_180_13247)"><mask id="a" style="mask-type:luminance" maskUnits="userSpaceOnUse" x="0" y="0" width="68" height="25"><path d="M.5.5v24h67V.5H.5z" fill="#fff"/></mask><g mask="url(#a)" fill="#C9112D"><path d="M7.347 15.779l3.19-7.605 3.145 7.605H7.347zM7.363.5l1.523 3.681L.5 24.171h3.326l2.38-5.671h8.6l2.347 5.672h6.765L14.128.5H7.364zm25.776 13.088h7.91l1.16-2.766h-9.07V3.35h9.92L44.255.5h-17.45v23.67h16.512l1.196-2.85H33.14v-7.733zm24.278-.001h4.175v8.01a6.73 6.73 0 01-1.677.206c-5.628 0-7.275-4.936-7.275-9.303 0-4.19 1.413-9.15 6.854-9.15h5.798L66.487.5h-7.674c-7.452 0-12.711 4.873-12.711 12 0 7.039 5.051 12 12.884 12 3.903 0 6.432-.704 8.515-1.391V10.82h-8.924l-1.16 2.766z"/></g></g><defs><clipPath id="clip0_180_13247"><path fill="#fff" transform="translate(.5 .5)" d="M0 0h67v24H0z"/></clipPath></defs></svg>