<svg width="94" height="29" fill="none" xmlns="http://www.w3.org/2000/svg"><path fill-rule="evenodd" clip-rule="evenodd" d="M15.07 16.332a4.8 4.8 0 002.203-.532v-.007c2.335-1.2 3.926-3.587 3.926-6.338 0-3.448-2.503-6.328-5.833-7.007l-.086-.021c-.331-.06-1.026-.168-1.375-.168H.91v5.152h12.543c.13 0 .358.025.579.044a2.17 2.17 0 011.907 2.163 2.17 2.17 0 01-1.907 2.165 8.044 8.044 0 01-.577.038H3.29l.002 14.793 5.438-.007v-9.993h.037l6.814 9.993h6.452L14.994 16.33l.077.002zm72.58 10.273h5.44V2.396h-5.44v24.209zM31.419 10.69l5.08-8.297h6.186l-8.553 13.93v10.283H28.69V16.324L20.146 2.393h6.187l5.085 8.296zm41.559 8.98l-.005-3.047h4.048c.24 0 .555.024.85.053 1.234.067 2.214 1.1 2.214 2.365 0 1.265-.98 2.297-2.214 2.366-.194.018-.614.04-.852.04h-4.046l.005-1.656v-.122zm-5.444.099v6.84h9.184c.74-.005 1.73-.105 2.03-.145 3.796-.494 6.726-3.643 6.726-7.46a7.321 7.321 0 00-.811-3.354l-.013-.026a4.21 4.21 0 00-1.861-1.835h-.025a4.224 4.224 0 001.253-1.561l.015-.017c.365-.761.642-1.65.642-2.513 0-3.917-2.52-6.646-6.223-7.145-.258-.037-1.055-.157-1.717-.157H65.948v5.148h11.063c.14 0 .455.036.676.055a2.156 2.156 0 011.939 2.155 2.157 2.157 0 01-1.94 2.155 6.658 6.658 0 01-.67.052h-9.482v7.808zM40 14.5c0-6.99 5.607-12.66 12.524-12.66 6.917 0 12.525 5.67 12.525 12.66 0 6.991-5.608 12.659-12.525 12.659-6.917 0-12.525-5.668-12.525-12.659zm12.524 7.144c3.904 0 7.068-3.198 7.068-7.144s-3.164-7.144-7.068-7.144c-3.904 0-7.068 3.198-7.068 7.144 0 3.945 3.164 7.144 7.068 7.144z" fill="#FF2E16"/></svg>