<svg width="27" height="27" fill="none" xmlns="http://www.w3.org/2000/svg"><g clip-path="url(#clip0_222_18838)" stroke="#0B3B47" stroke-width="1.6" stroke-linecap="round" stroke-linejoin="round"><path d="M10.125 5.625h-2.25a2.25 2.25 0 00-2.25 2.25v13.5a2.25 2.25 0 002.25 2.25h11.25a2.25 2.25 0 002.25-2.25v-13.5a2.25 2.25 0 00-2.25-2.25h-2.25"/><path d="M10.125 5.625a2.25 2.25 0 012.25-2.25h2.25a2.25 2.25 0 010 4.5h-2.25a2.25 2.25 0 01-2.25-2.25zm0 7.875h.011m4.489 0h2.25m-6.75 4.5h.011m4.489 0h2.25"/></g><defs><clipPath id="clip0_222_18838"><path fill="#fff" d="M0 0h27v27H0z"/></clipPath></defs></svg>