<svg width="83" height="47" fill="none" xmlns="http://www.w3.org/2000/svg"><path d="M23.056 46.111c12.734 0 23.055-10.322 23.055-23.055C46.111 10.322 35.79 0 23.056 0 10.32 0 0 10.322 0 23.056 0 35.789 10.322 46.11 23.056 46.11z" fill="#EC0020"/><path d="M59.944 46.111C72.678 46.111 83 35.79 83 23.056S72.678 0 59.944 0C47.21 0 36.89 10.322 36.89 23.056c0 12.733 10.321 23.055 23.055 23.055z" fill="#FE9A0C"/><path fill-rule="evenodd" clip-rule="evenodd" d="M15.79 29.437h-2.062l1.887-10.498h-.035l-3.855 10.498H9.222L9.176 18.94h-.035L7.61 29.437H5.532l2.26-12.894h3.227l.139 10.045h.035l3.657-10.045h3.191l-2.246 12.894h-.006zm15.536-7.193a11.243 11.243 0 00-2.767-.201c-1.117.135-1.36.472-1.431.863-.256 1.444 4.832.06 4.215 3.405a3.898 3.898 0 01-3.996 3.23 8.054 8.054 0 01-3.294-.445l.303-1.767a13.12 13.12 0 003.156.284 1.752 1.752 0 001.711-.922c.28-1.524-4.795-.369-4.181-3.777a3.37 3.37 0 013.727-2.688c.963.011 1.92.157 2.843.432l-.28 1.59-.006-.004zm1.166-.426l.756-3.407h2.062l-.443 1.706h1.284l-.314 1.7h-1.29l-.908 4.922c-.094.54-.116.738.721.738a2.59 2.59 0 00.432-.04l-.292 1.832c-.326.015-.699.244-1.025.244h-.257a1.559 1.559 0 01-1.549-.561 1.565 1.565 0 01-.184-1.638l1.001-5.503.006.007zm4.969 3.929a1.469 1.469 0 00.765 1.837c.221.101.467.146.71.129a5.468 5.468 0 003.599-1.04l-.327 1.7a5.391 5.391 0 01-3.669 1.038c-2.2 0-3.688-1.226-2.993-4.95.21-1.092 1.177-4.6 4.6-4.6 1.55 0 3.53 1.326 2.767 5.469l-.07.417H37.46zm3.543-1.77c.153-1.475-.581-2.144-1.245-2.144a2.415 2.415 0 00-1.948 2.145h3.202-.01zm3.204-3.697h1.968l-.292 1.39h.042a2.989 2.989 0 012.481-1.794c.14 0 .443.068.572.08l-.758 2.362a2.397 2.397 0 00-2.748 2.13l-.861 5.08h-2.063l1.66-9.248h-.002zm12.45-.983a3.423 3.423 0 00-2.574-.46c-1.047.185-2.766.81-3.412 4.276-.326 1.767-.15 3.884 1.548 4.288a4.165 4.165 0 003.436-.66l-.553 2.226c-.246.094-.467.716-3.016.553-2.818-.184-4.438-2.213-3.658-6.446.78-4.275 3.32-6.489 6.056-6.456a3.413 3.413 0 012.55 1.146l-.368 1.538-.01-.005zM75.245 29.44h-2.022l.209-1.393h-.024a2.989 2.989 0 01-2.527 1.362c-2.33 0-2.866-2.374-2.413-4.868.583-3.135 2.398-4.683 4.125-4.683a1.955 1.955 0 012.003 1.418h.035l.79-4.703h2.063l-2.232 12.863-.007.004zm-3.493-1.986a2.71 2.71 0 002.305-2.605c.267-1.457.175-2.927-1.234-2.927a2.815 2.815 0 00-2.26 2.794c-.199 1.065-.128 2.738 1.189 2.738zm-8.946-.203s-.197.972-.244 1.457l-.105.817H60.63a7.967 7.967 0 010-1.424 3.739 3.739 0 01-2.767 1.308 1.923 1.923 0 01-1.668-.796 1.939 1.939 0 01-.231-1.835 3.296 3.296 0 01.915-1.932 3.297 3.297 0 011.905-.967l1.91-.325c.337-.053.755.203.86-.31a1.012 1.012 0 00-.254-.92 1.018 1.018 0 00-.91-.293 7.234 7.234 0 00-3.155.594l.465-1.767a6.204 6.204 0 013.285-.596c1.106.042 3.05.393 2.678 2.582l-.85 4.397-.006.01zm-1.618-2.496a3.34 3.34 0 01-1.492.487 1.661 1.661 0 00-1.641 1.374.797.797 0 00.075.756.794.794 0 00.68.338 2.264 2.264 0 002.168-1.795l.21-1.16zm3.529-4.478h1.968l-.286 1.56h.035c.214-.495.557-.923.992-1.24a2.993 2.993 0 011.489-.554c.14 0 .442.068.572.08l-.759 2.36a2.246 2.246 0 00-.442-.028 2.138 2.138 0 00-2.306 1.987l-.861 5.08h-2.062l1.66-9.249v.004zm-41.131 6.974s-.198.972-.246 1.457l-.103.819h-1.843a8.381 8.381 0 010-1.426 3.795 3.795 0 01-2.766 1.424 2.033 2.033 0 01-1.67-.875 2.018 2.018 0 01-.229-1.871 3.303 3.303 0 012.82-2.9l1.91-.325a.924.924 0 00.861-.713c.175-1.011-.64-.854-1.164-.87a7.258 7.258 0 00-3.157.595l.466-1.767a6.198 6.198 0 013.285-.594c1.107.042 3.051.393 2.678 2.582l-.85 4.456.008.008zm-1.62-2.496a3.31 3.31 0 01-1.49.487 1.661 1.661 0 00-1.642 1.374.797.797 0 00.076.756.795.795 0 00.68.338 2.264 2.264 0 002.168-1.795l.208-1.16z" fill="#fff"/><path fill-rule="evenodd" clip-rule="evenodd" d="M15.79 29.437h-2.062l1.887-10.498h-.035l-3.855 10.498H9.222L9.176 18.94h-.035L7.61 29.437H5.532l2.26-12.894h3.227l.139 10.045h.035l3.657-10.045h3.191l-2.246 12.894h-.006zm15.536-7.193a11.243 11.243 0 00-2.767-.201c-1.117.135-1.36.472-1.431.863-.256 1.444 4.832.06 4.215 3.405a3.898 3.898 0 01-3.996 3.23 8.054 8.054 0 01-3.294-.445l.303-1.767a13.12 13.12 0 003.156.284 1.752 1.752 0 001.711-.922c.28-1.524-4.795-.369-4.181-3.777a3.37 3.37 0 013.727-2.688c.963.011 1.92.157 2.843.432l-.28 1.59-.006-.004zm1.166-.426l.756-3.407h2.062l-.443 1.706h1.284l-.314 1.7h-1.29l-.908 4.922c-.094.54-.116.738.721.738a2.59 2.59 0 00.432-.04l-.292 1.832c-.326.015-.699.244-1.025.244h-.257a1.559 1.559 0 01-1.549-.561 1.565 1.565 0 01-.184-1.638l1.001-5.503.006.007zm4.969 3.929a1.469 1.469 0 00.765 1.837c.221.101.467.146.71.129a5.468 5.468 0 003.599-1.04l-.327 1.7a5.391 5.391 0 01-3.669 1.038c-2.2 0-3.688-1.226-2.993-4.95.21-1.092 1.177-4.6 4.6-4.6 1.55 0 3.53 1.326 2.767 5.469l-.07.417H37.46zm3.543-1.77c.153-1.475-.581-2.144-1.245-2.144a2.415 2.415 0 00-1.948 2.145h3.202-.01zm3.204-3.697h1.968l-.292 1.39h.042a2.989 2.989 0 012.481-1.794c.14 0 .443.068.572.08l-.758 2.362a2.397 2.397 0 00-2.748 2.13l-.861 5.08h-2.063l1.66-9.248h-.002zm12.45-.983a3.423 3.423 0 00-2.574-.46c-1.047.185-2.766.81-3.412 4.276-.326 1.767-.15 3.884 1.548 4.288a4.165 4.165 0 003.436-.66l-.553 2.226c-.246.094-.467.716-3.016.553-2.818-.184-4.438-2.213-3.658-6.446.78-4.275 3.32-6.489 6.056-6.456a3.413 3.413 0 012.55 1.146l-.368 1.538-.01-.005zM75.245 29.44h-2.022l.209-1.393h-.024a2.989 2.989 0 01-2.527 1.362c-2.33 0-2.866-2.374-2.413-4.868.583-3.135 2.398-4.683 4.125-4.683a1.955 1.955 0 012.003 1.418h.035l.79-4.703h2.063l-2.232 12.863-.007.004zm-3.493-1.986a2.71 2.71 0 002.305-2.605c.267-1.457.175-2.927-1.234-2.927a2.815 2.815 0 00-2.26 2.794c-.199 1.065-.128 2.738 1.189 2.738zm-8.946-.203s-.197.972-.244 1.457l-.105.817H60.63a7.967 7.967 0 010-1.424 3.739 3.739 0 01-2.767 1.308 1.923 1.923 0 01-1.668-.796 1.939 1.939 0 01-.231-1.835 3.296 3.296 0 01.915-1.932 3.297 3.297 0 011.905-.967l1.91-.325c.337-.053.755.203.86-.31a1.012 1.012 0 00-.254-.92 1.018 1.018 0 00-.91-.293 7.234 7.234 0 00-3.155.594l.465-1.767a6.204 6.204 0 013.285-.596c1.106.042 3.05.393 2.678 2.582l-.85 4.397-.006.01zm-1.618-2.496a3.34 3.34 0 01-1.492.487 1.661 1.661 0 00-1.641 1.374.797.797 0 00.075.756.794.794 0 00.68.338 2.264 2.264 0 002.168-1.795l.21-1.16zm3.529-4.478h1.968l-.286 1.56h.035c.214-.495.557-.923.992-1.24a2.993 2.993 0 011.489-.554c.14 0 .442.068.572.08l-.759 2.36a2.246 2.246 0 00-.442-.028 2.138 2.138 0 00-2.306 1.987l-.861 5.08h-2.062l1.66-9.249v.004zm-41.131 6.974s-.198.972-.246 1.457l-.103.819h-1.843a8.381 8.381 0 010-1.426 3.795 3.795 0 01-2.766 1.424 2.033 2.033 0 01-1.67-.875 2.018 2.018 0 01-.229-1.871 3.303 3.303 0 012.82-2.9l1.91-.325a.924.924 0 00.861-.713c.175-1.011-.64-.854-1.164-.87a7.258 7.258 0 00-3.157.595l.466-1.767a6.198 6.198 0 013.285-.594c1.107.042 3.051.393 2.678 2.582l-.85 4.456.008.008zm-1.62-2.496a3.31 3.31 0 01-1.49.487 1.661 1.661 0 00-1.642 1.374.797.797 0 00.076.756.795.795 0 00.68.338 2.264 2.264 0 002.168-1.795l.208-1.16z" fill="#fff"/></svg>