<svg width="74" height="26" fill="none" xmlns="http://www.w3.org/2000/svg"><path fill-rule="evenodd" clip-rule="evenodd" d="M68.366 24.822s-.539-3.287-.72-4.11H59.86c-.215.644-1.291 4.11-1.291 4.11h-6.353l9.009-21.483a2.973 2.973 0 013.157-1.97h4.701L74 24.823h-5.634zM65.243 9.71l-.431-2.005c-.287.895-.827 2.292-.79 2.256 0 0-1.938 5.19-2.403 6.55h5.023c-.248-1.184-1.4-6.8-1.4-6.8zM52.18 6.776a10.176 10.176 0 00-4.52-.895c-2.406 0-3.483 1.003-3.519 2.004 0 1.11 1.293 1.825 3.444 2.9 3.482 1.653 5.096 3.686 5.06 6.37-.035 4.832-4.162 7.98-10.551 7.98a18.507 18.507 0 01-6.75-1.25l.827-5.262.826.394a12.241 12.241 0 005.67 1.252c1.76 0 3.624-.716 3.661-2.29 0-1.038-.789-1.792-3.158-2.935-2.297-1.11-5.348-2.971-5.312-6.336.036-4.546 4.235-7.732 10.228-7.732 1.862-.011 3.71.315 5.455.964l-.826 5.083-.535-.247zM25.481 24.822L29.285 1.37h6.06l-3.801 23.452H25.48zm-14.601 0L5.472 4.477c-.185-.107-.379-.205-.568-.308h3.62l1.338.946 2.453 3.745 1.042 2.877.467 2.376.646 3.222L20.426 1.37h6.425l-9.546 23.452H10.88z" fill="#1470B0"/><path fill-rule="evenodd" clip-rule="evenodd" d="M8.127 7.21a13.849 13.849 0 00-2.333-1.483l-.346-1.3A24.304 24.304 0 000 2.13v-.726h9.317a2.442 2.442 0 012.383 1.93l2.017 10.268a25.41 25.41 0 00-5.59-6.392z" fill="#FFB927"/></svg>