<svg width="81" height="22" fill="none" xmlns="http://www.w3.org/2000/svg"><path fill-rule="evenodd" clip-rule="evenodd" d="M20.311 21.49V9.09h-.547l-3.928 12.4h-4.679L7.243 9.09h-.544v12.4H0V.62h6.709a3.898 3.898 0 013.742 2.75l2.758 9.645h.58l2.762-9.645a3.902 3.902 0 013.76-2.75h6.709v20.87h-6.71zm25.659 0V9.2h-.528l-4.575 10.296a3.388 3.388 0 01-3.094 1.994H31.91V.62h6.752v12.29h.553l4.633-10.312.036-.079v-.007A3.387 3.387 0 0146.93.621h5.863V21.49H45.97zm26.62-6.128h-8.044v6.128H57.72V10.442h22.686a8.372 8.372 0 01-7.816 4.92z" fill="#52B461"/><path fill-rule="evenodd" clip-rule="evenodd" d="M80.836 7.987H67.859c-5.636 0-10.321-3.403-11.308-7.366h16.647C77.508.621 81 3.61 81 6.802c0 .4-.055.8-.164 1.185z" fill="url(#paint0_linear_164_8284)"/><defs><linearGradient id="paint0_linear_164_8284" x1="21693.5" y1="707.698" x2="21206.8" y2="707.698" gradientUnits="userSpaceOnUse"><stop stop-color="#198ECA"/><stop offset="1" stop-color="#1DB5E4"/></linearGradient></defs></svg>