<svg width="62" height="39" fill="none" xmlns="http://www.w3.org/2000/svg"><g clip-path="url(#clip0_164_8301)"><path d="M12.12.056h15.446c2.156 0 3.497 1.723 2.994 3.845l-7.191 30.277c-.508 2.114-2.667 3.84-4.824 3.84H3.1c-2.153 0-3.497-1.726-2.994-3.84L7.3 3.901C7.803 1.779 9.96.056 12.12.056z" fill="#E21836"/><path d="M26.28.056h17.764c2.155 0 1.183 1.723.676 3.845l-7.19 30.277c-.505 2.114-.347 3.84-2.508 3.84H17.26c-2.16 0-3.497-1.726-2.99-3.84l7.19-30.277c.51-2.122 2.664-3.845 4.822-3.845z" fill="#00447C"/><path d="M43.338.056h15.447c2.159 0 3.5 1.723 2.993 3.845l-7.19 30.277c-.508 2.114-2.668 3.84-4.827 3.84h-15.44c-2.16 0-3.5-1.726-2.993-3.84l7.19-30.277c.504-2.122 2.66-3.845 4.82-3.845z" fill="#007B84"/><path d="M16.154 9.759c-1.589.016-2.058 0-2.208-.035-.057.269-1.13 5.117-1.132 5.121-.231.981-.4 1.68-.97 2.132-.323.263-.701.39-1.14.39-.704 0-1.114-.344-1.183-.994l-.013-.224s.214-1.314.214-1.321c0 0 1.125-4.419 1.327-5.003a.409.409 0 00.016-.066c-2.19.019-2.578 0-2.605-.035-.014.048-.069.322-.069.322l-1.148 4.98-.099.422-.19 1.382c0 .41.081.744.245 1.027.523.897 2.016 1.031 2.86 1.031 1.088 0 2.109-.227 2.799-.64 1.197-.694 1.51-1.779 1.79-2.742l.129-.495s1.159-4.589 1.356-5.186c.007-.033.01-.05.02-.066zm3.942 3.702a3.1 3.1 0 00-1.248.287c-.166.084-.324.18-.49.277l.15-.53-.082-.09c-.973.193-1.19.219-2.088.343l-.076.049c-.104.848-.197 1.486-.583 3.153-.148.614-.3 1.234-.454 1.847l.042.078c.92-.048 1.2-.048 2-.035l.064-.069c.102-.51.115-.63.34-1.664.106-.49.327-1.568.436-1.951.2-.091.397-.18.585-.18.448 0 .394.383.377.536-.02.257-.183 1.095-.35 1.814l-.112.465c-.078.343-.164.676-.242 1.016l.034.068a21.925 21.925 0 011.959-.035l.091-.069c.14-.797.181-1.01.43-2.172l.125-.533c.243-1.044.364-1.574.18-2.005-.194-.483-.66-.6-1.088-.6zm4.405 1.093c-.482.091-.79.152-1.096.19-.303.048-.598.091-1.064.155l-.037.033-.034.026c-.049.34-.082.635-.147.98a17.66 17.66 0 01-.275 1.35c-.106.446-.16.602-.22.76-.06.157-.124.31-.243.75l.028.04.023.037c.436-.02.72-.035 1.014-.037.292-.01.595 0 1.064.002l.041-.032.044-.037c.068-.396.078-.503.12-.696.04-.208.111-.495.285-1.262.082-.36.174-.72.259-1.088.088-.366.18-.727.269-1.087l-.013-.044-.018-.04zm.01-1.474c-.438-.253-1.207-.173-1.725.178-.516.343-.575.83-.138 1.087.43.247 1.203.173 1.716-.18.515-.35.58-.834.147-1.085zm2.65 5.874c.887 0 1.796-.24 2.48-.95.527-.577.768-1.435.852-1.788.272-1.171.06-1.718-.206-2.051-.405-.508-1.12-.67-1.86-.67-.447 0-1.508.043-2.338.792-.595.541-.87 1.275-1.037 1.979-.167.717-.36 2.008.85 2.488.374.157.912.2 1.26.2zm-.069-2.634c.205-.887.446-1.632 1.062-1.632.483 0 .518.554.303 1.444-.038.197-.214.932-.453 1.244-.166.231-.363.371-.58.371-.065 0-.45 0-.457-.56-.003-.277.055-.56.125-.867zm5.617 2.52l.07-.069c.097-.51.114-.63.331-1.664.109-.49.334-1.568.44-1.951.2-.091.394-.18.588-.18.446 0 .392.383.374.536-.016.257-.18 1.094-.35 1.814l-.106.464c-.081.344-.17.677-.247 1.017l.034.068c.91-.047 1.176-.047 1.956-.035l.094-.069c.137-.797.173-1.01.43-2.172l.121-.534c.244-1.044.368-1.573.187-2.004-.2-.483-.669-.6-1.09-.6-.28 0-.794.066-1.25.287-.163.084-.326.18-.486.277l.14-.53-.076-.09c-.972.193-1.194.219-2.091.343l-.07.05c-.108.847-.196 1.484-.583 3.152-.147.614-.3 1.234-.453 1.847l.041.078a22.648 22.648 0 011.996-.035zm6.688.035c.058-.274.398-1.898.4-1.898 0 0 .29-1.191.308-1.234 0 0 .091-.124.182-.174h.134c1.265 0 2.693 0 3.812-.807.762-.554 1.283-1.372 1.515-2.366.06-.243.104-.533.104-.823 0-.38-.077-.757-.303-1.051-.57-.783-1.707-.798-3.02-.804l-.646.006c-1.68.02-2.353.015-2.63-.019-.023.12-.067.334-.067.334s-.602 2.734-.602 2.739l-1.507 6.087c1.466-.017 2.068-.017 2.32.01zm1.115-4.857l.637-2.719.02-.14.01-.106.255.025 1.35.115c.521.197.736.706.586 1.37-.137.608-.538 1.119-1.055 1.365-.425.21-.945.227-1.482.227h-.347l.026-.137zm3.983 2.352c-.17.707-.363 1.997.841 2.457a2.4 2.4 0 001.078.191c.37-.02.712-.201 1.029-.463-.03.108-.058.215-.086.323l.054.07a32.719 32.719 0 012.074-.03l.085-.063c.137-.79.266-1.558.622-3.07.174-.723.347-1.44.525-2.161l-.028-.08a39.28 39.28 0 01-2.16.344l-.07.056-.029.215a1.326 1.326 0 00-.68-.548c-.414-.16-1.387.046-2.224.793-.588.534-.87 1.265-1.031 1.966zm2.035.043c.208-.87.446-1.608 1.063-1.608.39 0 .596.354.555.956-.033.15-.07.309-.112.488-.062.259-.129.515-.194.772a1.86 1.86 0 01-.228.452c-.159.221-.537.358-.754.358-.062 0-.443 0-.456-.55-.003-.275.054-.558.126-.868zm10.629-2.876l-.075-.083c-.959.19-1.133.22-2.014.337l-.064.064-.01.04-.004-.014c-.655 1.484-.636 1.163-1.17 2.332l-.006-.143-.134-2.533-.084-.083c-1.004.19-1.028.22-1.956.337l-.072.064c-.01.03-.01.063-.016.1l.006.012c.116.581.088.452.204 1.369.055.45.127.903.181 1.347.092.744.143 1.11.255 2.246-.627 1.013-.775 1.397-1.378 2.287l.004.009-.425.658c-.048.07-.092.117-.154.138a.669.669 0 01-.278.038h-.236l-.35 1.141 1.2.02c.705-.002 1.148-.325 1.386-.76l.754-1.267h-.012l.08-.09c.507-1.071 4.368-7.566 4.368-7.566zM44.495 28.521h-.51l1.885-6.111h.625l.198-.63.02.7c-.024.433.323.817 1.235.753h1.055l.363-1.176h-.397c-.228 0-.334-.057-.321-.178l-.02-.712h-1.952v.004c-.631.012-2.517.059-2.899.159-.462.116-.948.46-.948.46l.19-.63h-1.826l-.38 1.25-1.91 6.204h-.37l-.364 1.168h3.639l-.122.39h1.793l.119-.39h.503l.394-1.261zm-1.493-4.87c-.292.08-.837.32-.837.32l.484-1.561h1.452l-.35 1.138s-.449.026-.749.104zm.028 2.232s-.456.056-.756.122c-.296.088-.85.365-.85.365l.5-1.625h1.46l-.354 1.138zm-.813 2.652H40.76l.422-1.372h1.451l-.417 1.372zm3.506-3.79h2.099l-.302.958h-2.127l-.319 1.047h1.86l-1.408 1.945a.577.577 0 01-.285.234.848.848 0 01-.378.106h-.517l-.354 1.147h1.35c.702 0 1.116-.313 1.422-.724l.966-1.296.208 1.316a.622.622 0 00.347.447c.135.067.275.18.472.198.212.009.364.016.466.016h.663l.399-1.284h-.262c-.15 0-.409-.024-.453-.07-.044-.057-.044-.143-.068-.275l-.21-1.32h-.862l.378-.44h2.123l.326-1.047h-1.965l.306-.958h1.959l.363-1.181h-5.84l-.357 1.18zm-17.725 4.057l.49-1.598h2.013l.368-1.189h-2.015l.308-.983h1.969l.364-1.151H26.57l-.357 1.15h1.119l-.299.984H25.91l-.372 1.21h1.119l-.653 2.113c-.088.28.041.387.123.517.085.126.17.21.36.258.198.043.333.069.517.069h2.27l.404-1.317-1.006.136c-.194 0-.732-.023-.674-.2zm.231-7.65l-.51.904c-.11.198-.207.32-.296.377-.078.048-.232.068-.456.068h-.266l-.356 1.156h.884c.425 0 .752-.152.908-.229.167-.088.211-.038.34-.16l.3-.254h2.76l.366-1.204h-2.02l.352-.658H28.23zm4.075 7.673c-.047-.066-.013-.183.06-.427l.754-2.45h2.684c.39-.005.673-.009.857-.022.197-.02.412-.09.646-.213.241-.13.364-.267.469-.425.116-.157.303-.5.463-1.03l.949-3.098-2.786.015s-.857.124-1.235.261c-.38.153-.925.58-.925.58l.251-.85h-1.72l-2.41 7.835c-.085.304-.142.525-.155.657-.005.143.184.285.306.391.144.107.357.09.561.107.215.016.521.026.943.026h1.322l.406-1.344-1.184.11a.313.313 0 01-.256-.123zm1.3-4.53h2.82l-.18.55c-.025.014-.085-.027-.372.007h-2.441l.174-.557zm.565-1.848h2.843l-.204.664s-1.34-.013-1.555.026c-.944.16-1.496.655-1.496.655l.412-1.345zm2.139 4.243a.294.294 0 01-.112.17c-.057.037-.15.05-.288.05h-.402l.024-.671h-1.671l-.068 3.28c-.002.236.02.373.197.483.177.137.721.154 1.453.154h1.047l.378-1.227-.911.049-.303.017a.339.339 0 01-.125-.076c-.039-.038-.103-.015-.093-.252l.007-.84.956-.039c.516 0 .737-.165.925-.322.18-.15.239-.323.306-.556l.16-.745h-1.313l-.167.525z" fill="#FEFEFE"/></g><defs><clipPath id="clip0_164_8301"><path fill="#fff" transform="translate(0 .056)" d="M0 0h62v38H0z"/></clipPath></defs></svg>