<svg width="36" height="36" fill="none" xmlns="http://www.w3.org/2000/svg"><g clip-path="url(#clip0_163_7407)" fill-rule="evenodd" clip-rule="evenodd" fill="#F4F5F5"><path d="M6.879 8.379A3 3 0 019 7.5h4.5a3 3 0 013 3v9c0 2.254-.567 4.235-1.829 5.812-1.257 1.572-3.08 2.586-5.307 3.143a1.5 1.5 0 01-.728-2.91c1.774-.444 2.95-1.18 3.693-2.107.738-.923 1.171-2.191 1.171-3.938V18H9a3 3 0 01-3-3v-4.5a3 3 0 01.879-2.121zm13.5 0A3 3 0 0122.5 7.5H27a3 3 0 013 3v9c0 2.254-.567 4.235-1.828 5.812-1.258 1.572-3.082 2.586-5.308 3.143a1.5 1.5 0 01-.728-2.91c1.774-.444 2.95-1.18 3.693-2.107C26.567 22.515 27 21.247 27 19.5V18h-4.5a3 3 0 01-3-3v-4.5a3 3 0 01.879-2.121z"/></g><defs><clipPath id="clip0_163_7407"><path fill="#fff" d="M0 0h36v36H0z"/></clipPath></defs></svg>