<svg width="27" height="27" fill="none" xmlns="http://www.w3.org/2000/svg"><path d="M11.616 4.857c.479-1.976 3.29-1.976 3.768 0a1.939 1.939 0 002.895 1.199c1.736-1.058 3.724.93 2.666 2.666a1.938 1.938 0 001.198 2.894c1.976.479 1.976 3.29 0 3.768a1.939 1.939 0 00-1.199 2.895c1.058 1.736-.93 3.724-2.666 2.666a1.938 1.938 0 00-2.894 1.198c-.479 1.976-3.29 1.976-3.768 0a1.939 1.939 0 00-2.895-1.199c-1.736 1.058-3.724-.93-2.666-2.666a1.94 1.94 0 00-1.198-2.894c-1.976-.479-1.976-3.29 0-3.768A1.939 1.939 0 006.056 8.72c-1.058-1.736.93-3.724 2.666-2.666a1.938 1.938 0 002.894-1.198z" stroke="#0B3B47" stroke-width="1.6" stroke-linecap="round" stroke-linejoin="round"/><path d="M10.125 13.5a3.375 3.375 0 106.75 0 3.375 3.375 0 00-6.75 0z" stroke="#0B3B47" stroke-width="1.6" stroke-linecap="round" stroke-linejoin="round"/></svg>