<svg width="19" height="11" fill="none" xmlns="http://www.w3.org/2000/svg"><path d="M4.017 1l-2.406.003s-.36-.02-.494.13c-.117.133-.009.353-.009.353s1.824 4.36 3.905 6.526C6.484 9.544 7.96 10 9.319 10h.776c.417 0 .602-.096.602-.31 0-.598-.005-1.298.514-1.453.62-.185 1.501.88 2.343 1.428.516.341 1.118.335 1.118.335h2.483s1.176-.107.617-.99c-.045-.072-.325-.498-1.672-1.689-1.41-1.247-1.223-1.045.477-3.201 1.035-1.314 1.444-2.525 1.347-2.879C17.856.996 17.459 1 17.038 1s-2.341.016-2.533.016c-.192 0-.188 0-.327.079-.137.078-.225.235-.225.235s-.424 1.435-.96 2.3c-1.127 1.824-1.762 1.686-1.947 1.572-.428-.264-.349-1.062-.349-1.629 0-1.767.204-2.27-.626-2.46-.275-.063-.476-.106-1.18-.113-.905-.008-1.43.036-1.815.207-.288.135-.516.372-.38.389.167.022.55.161.751.422.26.336.238 1.092.238 1.092s.164 1.759-.334 2.017c-.342.178-.81.136-1.815-1.518-.515-.848-.92-2.178-.92-2.178s-.075-.179-.21-.272C4.244 1.045 4.017 1 4.017 1z" fill="#3172D0"/></svg>