<svg width="19" height="19" fill="none" xmlns="http://www.w3.org/2000/svg"><g clip-path="url(#clip0_159_10377)"><path d="M9.502.5h-.004C4.535.5.5 4.537.5 9.5c0 1.969.635 3.793 1.713 5.275L1.092 18.12l3.46-1.106a8.922 8.922 0 004.95 1.487c4.963 0 8.998-4.038 8.998-9s-4.035-9-8.998-9zm5.237 12.71c-.217.612-1.079 1.12-1.766 1.27-.47.1-1.085.18-3.152-.678-2.645-1.096-4.348-3.783-4.481-3.958-.127-.174-1.07-1.423-1.07-2.714 0-1.292.656-1.92.92-2.19.217-.222.576-.324.92-.324.112 0 .212.006.302.01.264.012.397.027.571.445.218.523.746 1.815.81 1.947.064.133.128.313.038.487-.085.18-.159.26-.292.413-.133.153-.258.27-.391.434-.122.143-.259.296-.106.56.153.26.682 1.122 1.46 1.815 1.005.895 1.82 1.18 2.11 1.302.218.09.477.069.635-.1.202-.217.45-.577.703-.932.18-.254.408-.285.646-.195.243.084 1.529.72 1.793.851.265.133.44.196.503.307.063.112.063.635-.154 1.25z" fill="#0AC133"/></g><defs><clipPath id="clip0_159_10377"><path fill="#fff" transform="translate(.5 .5)" d="M0 0h18v18H0z"/></clipPath></defs></svg>