<svg width="19" height="13" fill="none" xmlns="http://www.w3.org/2000/svg"><g clip-path="url(#clip0_159_10381)"><path d="M17.665 2.113A2.15 2.15 0 0016.152.601C14.826.239 9.49.239 9.49.239S4.152.25 2.826.612a2.15 2.15 0 00-1.513 1.512c-.35 1.326-.35 4.1-.35 4.1s0 2.772.361 4.109a2.15 2.15 0 001.512 1.512c1.327.362 6.664.362 6.664.362s5.337 0 6.663-.362a2.15 2.15 0 001.513-1.512c.362-1.326.362-4.11.362-4.11s-.011-2.773-.373-4.11z" fill="#DB2B1F"/><path d="M7.786 8.792l4.427-2.564-4.427-2.565v5.13z" fill="#fff"/></g><defs><clipPath id="clip0_159_10381"><path fill="#fff" transform="translate(.5 .24)" d="M0 0h18v12.522H0z"/></clipPath></defs></svg>